<?xml version="1.0" encoding="UTF-8" standalone="no"?>
<!-- Created with Inkscape (http://www.inkscape.org/) -->

<svg
   width="170.88724mm"
   height="54.439209mm"
   viewBox="0 0 170.88724 54.439209"
   version="1.1"
   id="svg1"
   xml:space="preserve"
   inkscape:version="1.4.2 (f4327f4, 2025-05-13)"
   sodipodi:docname="logofinal.svg"
   xmlns:inkscape="http://www.inkscape.org/namespaces/inkscape"
   xmlns:sodipodi="http://sodipodi.sourceforge.net/DTD/sodipodi-0.dtd"
   xmlns:xlink="http://www.w3.org/1999/xlink"
   xmlns="http://www.w3.org/2000/svg"
   xmlns:svg="http://www.w3.org/2000/svg"><sodipodi:namedview
     id="namedview1"
     pagecolor="#ffffff"
     bordercolor="#000000"
     borderopacity="0.25"
     inkscape:showpageshadow="2"
     inkscape:pageopacity="0.0"
     inkscape:pagecheckerboard="0"
     inkscape:deskcolor="#d1d1d1"
     inkscape:document-units="mm"
     inkscape:zoom="0.5"
     inkscape:cx="21"
     inkscape:cy="223"
     inkscape:window-width="1920"
     inkscape:window-height="1129"
     inkscape:window-x="-8"
     inkscape:window-y="-8"
     inkscape:window-maximized="1"
     inkscape:current-layer="layer1" /><defs
     id="defs1"><linearGradient
       id="linearGradient1622"
       inkscape:collect="always"><stop
         style="stop-color:#c71c17;stop-opacity:1;"
         offset="0"
         id="stop1623" /><stop
         style="stop-color:#390000;stop-opacity:1;"
         offset="1"
         id="stop1622" /></linearGradient><linearGradient
       id="linearGradient1620"
       inkscape:collect="always"><stop
         style="stop-color:#b81a11;stop-opacity:1;"
         offset="0"
         id="stop1620" /><stop
         style="stop-color:#380000;stop-opacity:1;"
         offset="1"
         id="stop1621" /></linearGradient><linearGradient
       inkscape:collect="always"
       xlink:href="#linearGradient1620"
       id="linearGradient1621"
       x1="91.268974"
       y1="102.7044"
       x2="91.898338"
       y2="120.0536"
       gradientUnits="userSpaceOnUse"
       gradientTransform="translate(10.851143,41.048424)" /><linearGradient
       inkscape:collect="always"
       xlink:href="#linearGradient1622"
       id="linearGradient1623"
       x1="92.31662"
       y1="134.80981"
       x2="92.98748"
       y2="151.74754"
       gradientUnits="userSpaceOnUse"
       gradientTransform="matrix(1.0380724,0,0,1,1.226914,9.9156991)" /><linearGradient
       inkscape:collect="always"
       xlink:href="#linearGradient1620"
       id="linearGradient1723"
       gradientUnits="userSpaceOnUse"
       gradientTransform="translate(10.851143,41.048424)"
       x1="91.268974"
       y1="102.7044"
       x2="91.898338"
       y2="120.0536" /><linearGradient
       inkscape:collect="always"
       xlink:href="#linearGradient1620"
       id="linearGradient1724"
       gradientUnits="userSpaceOnUse"
       gradientTransform="translate(10.851143,41.048424)"
       x1="91.268974"
       y1="102.7044"
       x2="91.898338"
       y2="120.0536" /><linearGradient
       inkscape:collect="always"
       xlink:href="#linearGradient1620"
       id="linearGradient1725"
       gradientUnits="userSpaceOnUse"
       gradientTransform="translate(10.851143,41.048424)"
       x1="91.268974"
       y1="102.7044"
       x2="91.898338"
       y2="120.0536" /><linearGradient
       inkscape:collect="always"
       xlink:href="#linearGradient1620"
       id="linearGradient1726"
       gradientUnits="userSpaceOnUse"
       gradientTransform="translate(10.851143,41.048424)"
       x1="91.268974"
       y1="102.7044"
       x2="91.898338"
       y2="120.0536" /><linearGradient
       inkscape:collect="always"
       xlink:href="#linearGradient1620"
       id="linearGradient1727"
       gradientUnits="userSpaceOnUse"
       gradientTransform="translate(10.851143,41.048424)"
       x1="91.268974"
       y1="102.7044"
       x2="91.898338"
       y2="120.0536" /><linearGradient
       inkscape:collect="always"
       xlink:href="#linearGradient1620"
       id="linearGradient1728"
       gradientUnits="userSpaceOnUse"
       gradientTransform="translate(10.851143,41.048424)"
       x1="91.268974"
       y1="102.7044"
       x2="91.898338"
       y2="120.0536" /><linearGradient
       inkscape:collect="always"
       xlink:href="#linearGradient1620"
       id="linearGradient1729"
       gradientUnits="userSpaceOnUse"
       gradientTransform="translate(10.851143,41.048424)"
       x1="91.268974"
       y1="102.7044"
       x2="91.898338"
       y2="120.0536" /><linearGradient
       inkscape:collect="always"
       xlink:href="#linearGradient1620"
       id="linearGradient1730"
       gradientUnits="userSpaceOnUse"
       gradientTransform="translate(10.851143,41.048424)"
       x1="91.268974"
       y1="102.7044"
       x2="91.898338"
       y2="120.0536" /><linearGradient
       inkscape:collect="always"
       xlink:href="#linearGradient1620"
       id="linearGradient1731"
       gradientUnits="userSpaceOnUse"
       gradientTransform="translate(10.851143,41.048424)"
       x1="91.268974"
       y1="102.7044"
       x2="91.898338"
       y2="120.0536" /><linearGradient
       inkscape:collect="always"
       xlink:href="#linearGradient1620"
       id="linearGradient1732"
       gradientUnits="userSpaceOnUse"
       gradientTransform="translate(10.851143,41.048424)"
       x1="91.268974"
       y1="102.7044"
       x2="91.898338"
       y2="120.0536" /><linearGradient
       inkscape:collect="always"
       xlink:href="#linearGradient1620"
       id="linearGradient1733"
       gradientUnits="userSpaceOnUse"
       gradientTransform="translate(10.851143,41.048424)"
       x1="91.268974"
       y1="102.7044"
       x2="91.898338"
       y2="120.0536" /><linearGradient
       inkscape:collect="always"
       xlink:href="#linearGradient1620"
       id="linearGradient1734"
       gradientUnits="userSpaceOnUse"
       gradientTransform="translate(10.851143,41.048424)"
       x1="91.268974"
       y1="102.7044"
       x2="91.898338"
       y2="120.0536" /><linearGradient
       inkscape:collect="always"
       xlink:href="#linearGradient1620"
       id="linearGradient1735"
       gradientUnits="userSpaceOnUse"
       gradientTransform="translate(10.851143,41.048424)"
       x1="91.268974"
       y1="102.7044"
       x2="91.898338"
       y2="120.0536" /><linearGradient
       inkscape:collect="always"
       xlink:href="#linearGradient1620"
       id="linearGradient1736"
       gradientUnits="userSpaceOnUse"
       gradientTransform="translate(10.851143,41.048424)"
       x1="91.268974"
       y1="102.7044"
       x2="91.898338"
       y2="120.0536" /></defs><g
     inkscape:label="Layer 1"
     inkscape:groupmode="layer"
     id="layer1"
     transform="translate(-13.684442,-111.26764)"><path
       d="m 154.03401,128.59577 0.10025,0.0103 0.006,0.008 -0.006,-0.009 -0.13177,-0.18138 0.13125,0.18138 -0.10025,-0.0103 v 5.2e-4 z"
       style="fill:#ad1a1a;stroke:#661814;stroke-width:0"
       id="path1695" /><path
       d="m 153.9229,128.74511 c 0.0506,-0.0327 0.10133,-0.0633 0.15193,-0.093 0.0218,-0.0128 0.0438,-0.0255 0.0656,-0.0377 0.004,-0.002 0.008,-0.004 0.0119,-0.007 -0.004,0.003 -0.008,0.005 -0.0119,0.007 -0.0217,0.0122 -0.0439,0.025 -0.0656,0.0377 -0.0506,0.0297 -0.10133,0.0607 -0.15193,0.0935 z"
       style="fill:#ad1a1a;stroke:#661814;stroke-width:0"
       id="path1693" /><path
       d="m 153.97975,128.42059 -0.001,5.1e-4 -0.0532,0.0264 v 5.1e-4 l 0.108,0.14676 -0.10748,-0.14676 0.0527,-0.0264 0.0238,0.002 v -5.2e-4 l -5.2e-4,-5.2e-4 z"
       style="fill:#ad1a1a;stroke:#661814;stroke-width:0"
       id="path1687" /><path
       d="m 94.188566,140.6555 c -0.05244,-0.0247 -0.09495,-0.0473 -0.116272,-0.0651 -0.05664,-0.0474 -0.170638,-0.0882 -0.284737,-0.10593 a 7.6415057,7.6415057 0 0 0 0.401009,0.17105 z"
       style="fill:#ad1a1a;stroke:#661814;stroke-width:0"
       id="path1666" /><path
       d="m 95.23243,141.01672 c -0.368325,-0.10696 -0.724706,-0.22674 -0.948779,-0.3204 a 7.6415057,7.6415057 0 0 0 0.948779,0.3204 z"
       style="fill:#ad1a1a;stroke:#661814;stroke-width:0"
       id="path1664" /><path
       d="m 136.42733,136.16585 0.0403,0.009 v -0.007 c -0.0132,-5.7e-4 -0.0271,-10e-4 -0.0403,-0.002 z"
       id="path1541" /><path
       d="m 133.196,118.25531 v 5.2e-4 l -5.1e-4,5.2e-4 c -0.0175,0.0299 -0.0357,0.064 -0.0548,0.10232 l 0.36432,-0.0222 c -0.16633,-0.0605 -0.28786,-0.0939 -0.30748,-0.0822 l -5.1e-4,5.2e-4 -5.2e-4,5.1e-4 z"
       id="path1629" /><path
       d="m 107.9469,120.63605 c -1.6356,-0.11413 -3.13726,-0.2323 -4.42247,-0.34882 0,0 -5.2e-4,0 -5.2e-4,0 l -0.10335,0.13849 c 0.66595,-0.004 3.73326,0.18721 4.48448,0.23462 v -5.2e-4 z"
       id="path1587" /><path
       d="m 78.230884,122.54653 -0.06511,-0.0186 c -0.0043,0.0167 -0.0088,0.0334 -0.01395,0.0501 z"
       id="path1607" /><path
       d="m 151.72666,128.15393 0.98547,0.076 -0.94982,-0.10904 c -0.0119,0.011 -0.0238,0.022 -0.0357,0.0331 z"
       id="path1681" /><path
       d="m 153.99525,128.41283 0.37362,-0.18241 -0.32039,0.15244 -0.0817,-0.009 z"
       id="path1684" /><path
       d="m 151.04659,127.48834 -12.65865,-0.85111 0.0873,0.0258 h -0.004 l 0.004,5.2e-4 h -0.003 l 0.003,5.1e-4 -0.16434,-0.008 h -5.1e-4 -5.2e-4 l -0.13126,0.0662 -0.01,-0.0734 h -5.1e-4 l -25.5819,-1.2423 0.002,0.0114 0.003,0.0139 -0.001,-0.001 5.2e-4,0.002 0.36897,0.50126 c 0.0644,-0.57179 1.05303,-0.4262 3.1719,-0.31161 1.77874,0.0962 5.2624,0.27187 7.74164,0.39016 8.84803,0.4222 10.51408,0.50809 13.95936,0.72088 1.9194,0.11855 5.30486,0.31829 7.52305,0.4439 2.21818,0.12561 4.37768,0.28356 4.79868,0.35089 0.52515,0.084 0.72326,0.0869 0.89296,-0.0336 z"
       id="path1536" /><path
       d="m 138.08408,121.11974 c 0.0279,0.0251 0.0492,0.046 0.0636,0.0636 0.0176,0.0215 0.025,0.0382 0.0212,0.0506 -0.001,0.003 -0.003,0.006 -0.006,0.009 -0.003,0.003 -0.006,0.005 -0.0109,0.008 -0.006,0.003 -0.0128,0.006 -0.0217,0.008 -0.0534,0.0142 -0.1627,0.0153 -0.33332,0.017 -0.0975,10e-4 -0.17626,-0.002 -0.23926,-0.0114 l 0.0165,0.11575 0.8878,-0.0181 z"
       id="path1528" /><path
       d="m 128.17564,114.74028 -0.14935,-0.007 c 0.1146,0.0419 0.2275,0.0848 0.33848,0.12867 z"
       id="path1519" /><path
       d="m 115.27358,113.73724 -0.25941,0.11318 c 0.002,-4.3e-4 0.004,-8.1e-4 0.006,-0.001 0.002,-2.9e-4 0.004,-5.6e-4 0.005,-10e-4 z"
       id="path1618" /><path
       d="m 106.9175,112.86701 -1.29036,0.75706 1.08004,-0.60616 6.35827,-1.11311 c -0.80767,0.0946 -1.59538,0.20554 -2.35076,0.33383 -1.40517,0.23865 -2.79746,0.46819 -3.79512,0.62735 l -10e-4,0.001 z"
       id="path1614" /><path
       d="m 86.66241,117.71891 -0.01499,0.31988 c 0.09102,-0.0407 0.09482,-0.15444 0.01499,-0.31988 z"
       id="path1608" /><path
       d="m 84.315267,124.26787 1.861902,0.5271 0.281636,-5.41724 c -2.582677,0.88294 -2.599332,0.82788 -3.17655,0.3607 -0.863913,-0.69922 -0.806391,-0.78393 0.531234,-0.78393 1.186948,0 1.1868,3e-5 1.09554,-0.41548 -0.09807,-0.44653 0.695541,-0.71549 1.494999,-0.50643 0.110162,0.0288 0.191173,0.0298 0.243396,0.006 l 0.01499,-0.31988 c -0.07198,-0.14916 -0.211722,-0.33993 -0.416512,-0.55707 -0.307153,-0.32568 -0.707242,-0.56186 -1.127063,-0.66507 -0.357934,-0.088 -1.043052,-0.30085 -1.522904,-0.47284 -0.738131,-0.26456 -4.431241,-0.82137 -7.808309,-1.17719 -1.372861,-0.14465 -1.69773,0.85978 -0.489376,1.51308 0.719516,0.38901 1.064568,0.84841 1.401465,1.86759 0.09253,0.27992 0.496139,1.27235 0.897103,2.20555 0.470049,1.09399 0.695653,1.60678 0.568957,2.09496 l 0.06511,0.0186 0.08992,-0.0362 z"
       style="fill:#92221a;stroke:#92221a;stroke-width:0.264583"
       id="path1606" /><path
       d="m 83.771631,138.11302 4.317566,-4.63745 -13.117029,-6.59029 c -0.05859,0.47204 -0.01917,1.08814 0.01912,2.1022 0.07433,1.96867 0.05022,2.56092 -0.12609,3.07836 -0.218276,0.6406 -0.218448,0.64013 0.495577,1.94355 0.392714,0.71687 0.901374,1.66302 1.130163,2.1022 0.482247,0.92573 0.230526,0.85114 6.086967,1.80712 0.432028,0.0705 0.829148,0.13554 1.193726,0.19431 z"
       style="fill:#661814;stroke:#661814;stroke-width:0.264583"
       id="path1613" /><path
       d="m 88.139323,133.27352 -13.151652,-6.4947 c -0.0057,0.0347 -0.011,0.0702 -0.0155,0.10646 l 13.117029,6.59029 0.0186,-0.0202 v -5.2e-4 c 0.01012,-0.0608 0.02074,-0.12114 0.03152,-0.18138 z"
       style="fill:#7e1b11;stroke:#7e1b11;stroke-width:0.264583"
       id="path1609" /><path
       d="m 86.176135,124.81357 -1.860868,-0.5457 -6.084383,-1.72134 -0.07906,0.0315 c -0.132377,0.42712 -0.538944,0.84992 -1.291911,1.64382 -1.293734,1.36406 -1.743,1.77118 -1.872237,2.55695 l 13.151652,6.4947 c 0.04962,-0.27711 0.106357,-0.54872 0.170015,-0.81494 l -2.063956,-7.47809 -0.0801,0.047 z"
       style="fill:#7e1b11;stroke:#7e1b11;stroke-width:0.264583"
       id="path1603" /><path
       d="m 104.27529,114.38217 1.31051,-0.73484 0.0207,-0.0119 1.31103,-0.76843 c -0.67599,0.10784 -1.17098,0.18311 -1.36477,0.20671 -0.69368,0.0845 -0.99122,0.20753 -1.45056,0.59996 -0.3373,0.28815 -0.91212,0.58431 -1.38131,0.71159 -5.204061,1.41177 -10.853978,3.13324 -15.271934,4.65294 -0.31432,0.10812 -0.600254,0.20611 -0.861446,0.29559 l -0.254765,5.50509 -0.155546,-0.0439 -0.001,0.0186 0.154513,0.0455 0.03617,0.002 17.907948,-10.47843 v -5.1e-4 z"
       style="fill:#a72a22;stroke:#a72a22;stroke-width:0.264583"
       id="path1602" /><path
       d="m 106.23176,138.96671 c 1.9766,-0.97242 7.41021,-3.94963 7.76128,-4.14083 l -9.11572,-5.2188 c 0.0837,0.16262 0.16074,0.32652 0.22996,0.49092 1.12364,2.6684 1.16596,3.01081 1.0449,8.48682 -0.003,0.15216 -0.0229,0.27836 0.0796,0.38189 z"
       style="fill:#8f221d;stroke:#8f221d;stroke-width:0.264583"
       id="path1572" /><path
       d="m 102.66402,128.33945 -2.722833,-1.55856 -1.036113,0.57464 c -2.34e-4,0.22861 -2.2e-4,0.46219 -5.17e-4,0.6997 0.258613,0.077 0.512488,0.17377 0.759127,0.29094 0.562076,0.26702 1.050886,0.60278 1.466576,0.9896 a 6.1226544,5.7837625 0 0 1 2.05931,4.32687 6.1226544,5.7837625 0 0 1 -4.32532,5.52886 c -0.0045,0.64246 -0.0095,1.26865 -0.01499,1.87172 a 7.6415057,7.6415057 0 0 0 5.92884,-7.44709 7.6415057,7.6415057 0 0 0 -2.11357,-5.27616 z"
       style="fill:#8f221d;stroke:#8f221d;stroke-width:0.264583"
       id="path1674" /><path
       d="m 114.0256,134.85999 0.0129,-0.007 -0.0238,-0.0134 c 0.003,0.006 0.006,0.0125 0.0108,0.0207 z"
       style="fill:#8f221d;stroke:#8f221d;stroke-width:0.264583"
       id="path1575" /><path
       d="m 98.906108,126.18868 c -1.78e-4,0.37222 -6.2e-4,0.76249 -0.001,1.16685 l 1.036113,-0.57464 z"
       style="fill:#8f221d;stroke:#8f221d;stroke-width:0.264583"
       id="path1679" /><path
       d="m 92.071383,127.89504 c -1.02801,1.02411 -1.80666,2.32669 -2.245341,3.7145 l 4.875154,-5.23638 a 7.6415057,7.6415057 0 0 0 -2.629813,1.52188 z"
       style="fill:#6a1b1b;stroke:#6a1b1b;stroke-width:0.264583"
       id="path1667" /><path
       d="m 103.52391,120.28723 c -2.34944,-0.213 -3.975008,-0.42164 -4.369239,-0.59583 -0.15995,-0.0707 -0.407032,-0.16544 -0.548803,-0.21084 -0.246322,-0.0789 -0.332994,-0.21196 -0.291972,-0.37827 0.149795,-0.61304 2.035694,-1.67525 4.039544,-2.1115 0.23992,-0.0522 0.56714,-0.14777 0.72709,-0.21239 0.15995,-0.0646 1.10871,-0.35875 2.1084,-0.65371 0.72414,-0.21365 1.43872,-0.43114 1.85363,-0.56327 l -2.73471,-1.1653 -17.864031,10.46809 8.594824,0.40153 c 0.279176,-0.0607 0.560268,-0.11266 0.838709,-0.15555 l 3.028756,-3.25303 c 0,1.6e-4 0.0011,1.24408 5.16e-4,3.1874 0.314389,0.0554 0.573108,0.13794 0.756543,0.24702 h 5.17e-4 l 0.19172,-0.10852 h 5.16e-4 c 0.45144,-0.64232 3.30354,-4.69499 3.4401,-4.74958 0.0123,-0.005 0.0557,-0.007 0.12454,-0.008 z"
       style="fill:#b82c25;stroke:#b82c25;stroke-width:0.264583"
       id="path1590" /><path
       d="m 105.62714,113.62407 -0.0207,0.0119 -0.0207,0.0114 -1.27485,0.74672 2.87114,0.99632 v 5.2e-4 l -0.12403,0.16588 c 0.15002,-0.0479 0.25883,-0.0839 0.31213,-0.10387 0.43674,-0.16325 1.87754,-0.48868 3.85351,-0.87023 0.79975,-0.15443 1.74851,-0.3445 2.1084,-0.4222 0.55264,-0.1194 1.11388,-0.22285 1.68052,-0.31005 l 0.26096,-0.11318 5.02709,-2.25877 c -2.37782,0.0162 -4.88859,0.15173 -7.2316,0.42581 l -6.36189,1.11363 z"
       style="fill:#d2645c;stroke:#d2645c;stroke-width:0.264583"
       id="path1616" /><path
       d="m 104.30991,114.39457 h 5.2e-4 v -5.2e-4 h 5.2e-4 l 1.27485,-0.74672 -1.31051,0.73484 z"
       style="fill:#6a1b1b;stroke:#d2645c;stroke-width:0.264583"
       id="path1601" /><path
       d="m 107.18157,115.39089 h 5.2e-4 v -5.2e-4 l -2.87166,-0.99632 v 5.2e-4 z"
       style="fill:#6a1b1b;stroke:#d2645c;stroke-width:0.264583"
       id="path1621" /><path
       d="m 104.30785,114.39612 2.73523,1.1653 c 0.005,-0.002 0.0101,-0.003 0.015,-0.005 l 0.12351,-0.16536 -2.87114,-0.99632 h -5.2e-4 z"
       style="fill:#6a1b1b;stroke:#d2645c;stroke-width:0.264583"
       id="path1600" /><path
       d="m 100.31791,126.66824 1.38803,0.82269 a 7.6415057,7.6415057 0 0 0 -1.38803,-0.82269 z"
       style="fill:#b92b27;stroke:#b92b27;stroke-width:0.264583"
       id="path1673" /><path
       d="m 98.906108,126.18248 c -2e-6,0.002 10e-7,0.004 0,0.006 0,0 0,5.2e-4 0,5.2e-4 l 1.035079,0.59221 0.280603,-0.15554 a 7.6415057,7.6415057 0 0 0 -1.315682,-0.44287 z"
       style="fill:#b92b27;stroke:#b92b27;stroke-width:0.264583"
       id="path1670" /><path
       d="m 100.22179,126.62535 -0.280603,0.15554 2.722833,1.55856 a 7.6415057,7.6415057 0 0 0 -0.95705,-0.84749 l -1.39061,-0.82424 a 7.6415057,7.6415057 0 0 0 -0.0946,-0.0424 z"
       style="fill:#b92b27;stroke:#b92b27;stroke-width:0.264583"
       id="path1672" /><path
       d="m 100.22179,126.62535 a 7.6415057,7.6415057 0 0 1 0.0946,0.0424 l -0.0827,-0.0491 z"
       style="fill:#b92b27;stroke:#b92b27;stroke-width:0.264583"
       id="path1671" /><path
       d="m 101.32922,126.0104 0.74879,-0.41548 -1.99626,-0.0935 c 0.23257,0.0992 0.55447,0.22861 0.89038,0.35605 0.11839,0.0449 0.23735,0.0961 0.35657,0.15297 z"
       style="fill:#b92b27;stroke:#b92b27;stroke-width:0.264583"
       id="path1645" /><path
       d="m 99.744816,125.34429 0.06046,-0.0806 -0.0083,0.004 -5.16e-4,5.1e-4 v 0 l 5.16e-4,-5.1e-4 c 5e-6,-1e-5 -6e-6,-5.1e-4 0,-5.2e-4 0.0037,-0.005 0.02358,-0.0346 0.05736,-0.0827 l -0.121439,0.0682 -0.06925,0.0393 c 0.02562,0.0152 0.04973,0.0307 0.07235,0.047 0.0024,0.002 0.0055,0.004 0.0088,0.006 z"
       style="fill:#b92b27;stroke:#b92b27;stroke-width:0.264583"
       id="path1597" /><path
       d="m 113.99304,134.82588 h 5.2e-4 c 0.005,-0.003 0.008,-0.004 0.0108,-0.006 l 5.2e-4,-5.2e-4 v 0 c 1.9e-4,4.1e-4 0.003,0.007 0.009,0.0176 v 5.2e-4 5.1e-4 l 0.0253,0.014 0.0439,-0.0264 -9.39684,-5.56865 c 0.0672,0.11554 0.13087,0.23217 0.1912,0.34933 z"
       style="fill:#b92b27;stroke:#b92b27;stroke-width:0.264583"
       id="path1573" /><path
       d="m 101.33077,126.0104 0.74879,-0.41548 h -0.002 l -0.74879,0.41548 v 5.1e-4 h 10e-4 z"
       style="fill:#aa2723;stroke:#aa2723;stroke-width:0.264583"
       id="path1644" /><path
       d="m 114.16926,134.77369 -1.58905,-9.35706 0.001,0.001 -5.1e-4,-0.002 0.0103,0.0145 -0.002,-0.0129 -0.003,-0.0114 -0.0351,-0.002 v 5.2e-4 h -5.2e-4 l -0.84336,-4.52737 c -1.30231,-0.0774 -2.56607,-0.15865 -3.75842,-0.24185 l -5.2e-4,5.2e-4 h -5.2e-4 l -0.0418,0.0238 c 0.10567,0.007 0.16536,0.01 0.16536,0.01 l -5.2e-4,5.1e-4 c 0,0 0,5.2e-4 0,5.2e-4 h 0.001 c 0,0 0,0 0,0 l -8.264099,4.59093 h -5.16e-4 v 5.2e-4 l -5.17e-4,5.2e-4 v 5.2e-4 l -0.06149,0.0811 c 0,0 0,5.1e-4 0,5.1e-4 0.04519,0.0281 0.166678,0.0836 0.335382,0.15555 l 1.99885,0.0935 -0.001,5.2e-4 h 0.002 l -5.2e-4,5.2e-4 h -5.1e-4 l -0.74879,0.41548 c 1.26214,0.60322 2.54607,1.85464 3.35483,3.24528 l 9.39736,5.56917 z"
       style="fill:#aa2723;stroke:#aa2723;stroke-width:0.264583"
       id="path1579" /><path
       d="m 99.874007,125.17324 v 5.1e-4 l -0.06511,0.0868 8.260993,-4.5899 c -0.009,-5.9e-4 -0.0673,-0.005 -0.16381,-0.0103 h -5.2e-4 -5.2e-4 z"
       style="fill:#bb2d29;stroke:#bb2d29;stroke-width:0.264583"
       id="path1593" /><path
       d="m 103.42056,120.42572 -3.546553,4.74752 8.031033,-4.5129 c -0.75122,-0.0474 -3.81853,-0.23842 -4.48448,-0.23462 z"
       style="fill:#bb2d29;stroke:#bb2d29;stroke-width:0.264583"
       id="path1591" /><path
       d="m 99.855404,125.18409 c -0.01693,0.0241 -0.03043,0.0434 -0.04031,0.0574 -0.01,0.0144 -0.01621,0.0232 -0.01809,0.0258 l 0.0088,-0.005 0.001,-10e-4 0.0016,-0.001 0.06511,-0.0863 -0.01757,0.009 -5.16e-4,5.1e-4 z"
       style="fill:#bb2d29;stroke:#bb2d29;stroke-width:0.264583"
       id="path1598" /><path
       d="m 103.42056,120.42572 c -0.0688,3.9e-4 -0.11223,0.003 -0.12454,0.008 -0.13656,0.0546 -2.98866,4.10726 -3.4401,4.74958 l 0.01809,-0.009 v -5.1e-4 z"
       style="fill:#bb2d29;stroke:#bb2d29;stroke-width:0.264583"
       id="path1592" /><path
       d="m 114.16978,134.77317 0.0346,-0.0202 -1.61282,-9.32088 -0.0103,-0.0145 z"
       style="fill:#bf302c;stroke:#bf302c;stroke-width:0.264583"
       id="path1582" /><path
       d="m 112.96055,125.9334 -0.36897,-0.50126 1.61282,9.32088 2.8174,-1.69448 c -0.69034,-0.78046 -1.27637,-1.80348 -2.06396,-3.16311 -1.33736,-2.30871 -2.05584,-3.4368 -1.99729,-3.96151 z"
       style="fill:#bf302c;stroke:#bf302c;stroke-width:0.264583"
       id="path1537" /><path
       d="m 113.99408,134.8264 0.0186,0.0103 c -0.006,-0.0102 -0.008,-0.0165 -0.008,-0.0165 -0.003,0.002 -0.006,0.003 -0.0109,0.006 z"
       style="fill:#8b2020;stroke:#8b2020;stroke-width:0.264583"
       id="path1574" /><path
       d="m 116.35,139.28607 -0.27491,0.004 -2.09858,-4.25918 -0.14263,-0.0263 -5.2e-4,5.2e-4 h -5.1e-4 -5.2e-4 l -7.52306,4.02146 c 0.49091,0.29526 2.44364,0.37197 10.06864,0.31522 -0.009,-0.0182 -0.0185,-0.0369 -0.0279,-0.0558 z"
       style="fill:#8b2020;stroke:#8b2020;stroke-width:0.264583"
       id="path1566" /><path
       d="m 113.83233,135.0052 -0.0357,-0.007 0.22893,-0.13797 c -0.005,-0.009 -0.009,-0.016 -0.0119,-0.0217 h -5.1e-4 c 0,0 -5.2e-4,-5.2e-4 -5.2e-4,-5.2e-4 -7e-5,-2.9e-4 9e-5,-5.9e-4 0,-0.001 l -0.0191,-0.0108 h -5.2e-4 c -0.35107,0.1912 -5.78468,3.16841 -7.76128,4.14083 0.0206,0.0208 0.0461,0.0411 0.0775,0.0599 z"
       style="fill:#8b2020;stroke:#8b2020;stroke-width:0.264583"
       id="path1571" /><path
       d="m 135.62221,138.99927 -21.48964,-3.93981 c 0.40195,0.75014 1.6427,3.07224 2.21743,4.22661 z"
       style="fill:#8f201f;stroke:#8f201f;stroke-width:0.264583"
       id="path1565" /><path
       d="m 116.35,139.28607 c -0.57473,-1.15437 -1.81548,-3.47647 -2.21743,-4.22661 l -0.15606,-0.0284 2.09858,4.25918 z"
       style="fill:#8f201f;stroke:#8f201f;stroke-width:0.264583"
       id="path1567" /><path
       d="m 135.78809,138.99617 -21.67723,-3.97754 c 0.007,0.0128 0.0137,0.0265 0.0217,0.0403 v 5.2e-4 l 21.48964,3.93981 z"
       style="fill:#ac2824;stroke:#ac2824;stroke-width:0.264583"
       id="path1564" /><path
       d="m 113.97651,135.03103 0.15606,0.0284 v -5.2e-4 c -0.008,-0.0139 -0.0148,-0.0276 -0.0217,-0.0403 l -0.15451,-0.0284 z"
       style="fill:#ac2824;stroke:#ac2824;stroke-width:0.264583"
       id="path1569" /><path
       d="m 113.97651,135.03103 -0.0202,-0.0408 0.15451,0.0284 v -5.1e-4 c -0.0275,-0.0514 -0.0504,-0.0934 -0.0677,-0.12558 l -0.10491,0.0563 -0.10438,0.0558 z"
       style="fill:#ac2824;stroke:#ac2824;stroke-width:0.264583"
       id="path1568" /><path
       d="m 113.83388,135.00468 0.20929,-0.11266 c -0.007,-0.012 -0.0126,-0.0226 -0.0176,-0.0315 v -5.1e-4 l -0.22893,0.13797 0.0362,0.007 h 5.1e-4 z"
       style="fill:#ac2824;stroke:#ac2824;stroke-width:0.264583"
       id="path1570" /><path
       d="m 114.03852,134.85275 -0.0129,0.008 c 0.005,0.009 0.011,0.0195 0.0176,0.0315 l 0.0336,-0.0181 -0.0377,-0.0217 z"
       style="fill:#ac2824;stroke:#ac2824;stroke-width:0.264583"
       id="path1576" /><path
       d="m 114.03903,134.85223 0.0377,0.0217 h 5.1e-4 l 0.0455,-0.0243 -0.0398,-0.0238 z"
       style="fill:#ac2824;stroke:#ac2824;stroke-width:0.264583"
       id="path1577" /><path
       d="m 114.16926,134.77369 0.0129,0.076 0.0351,-0.0217 -0.0129,-0.0749 z"
       style="fill:#ac2824;stroke:#ac2824;stroke-width:0.264583"
       id="path1581" /><path
       d="m 114.08296,134.82588 0.0398,0.0238 -0.0455,0.0243 0.16434,0.094 -0.0243,-0.14004 -0.0351,0.0217 -0.0129,-0.076 z"
       style="fill:#ac2824;stroke:#ac2824;stroke-width:0.264583"
       id="path1578" /><path
       d="m 117.0218,133.05854 -2.8174,1.69448 0.0129,0.0749 2.83342,-1.73737 c -0.01,-0.0106 -0.0196,-0.0213 -0.0289,-0.032 z"
       style="fill:#ac2824;stroke:#ac2824;stroke-width:0.264583"
       id="path1538" /><path
       d="m 137.35802,138.9941 v -5.2e-4 c -0.0416,6.2e-4 -0.0808,0.001 -0.11627,0.002 -0.0597,0.002 -0.11755,0.005 -0.17105,0.007 0.11806,5e-5 0.22218,-1e-4 0.28836,-0.001 z"
       style="fill:#ac2824;stroke:#ac2824;stroke-width:0.264583"
       id="path1557" /><path
       d="m 137.3389,138.88661 -0.3979,0.091 0.39945,-0.0837 z"
       style="fill:#ac2824;stroke:#ac2824;stroke-width:0.264583"
       id="path1547" /><path
       d="m 137.32857,138.82563 -0.14108,0.032 c 0.0163,0 0.066,-1.4e-4 0.14625,-0.001 z"
       style="fill:#ac2824;stroke:#ac2824;stroke-width:0.264583"
       id="path1544" /><path
       d="m 117.05125,133.09058 c 0,0 0,5.2e-4 0,5.2e-4 l -2.83393,1.73685 0.0243,0.14004 -0.16434,-0.094 v 5.1e-4 l -0.0341,0.0181 c 0.0173,0.0322 0.0402,0.0742 0.0677,0.12558 h 5.2e-4 l 21.67981,3.97805 h -0.003 l 0.003,5.1e-4 -0.16898,0.003 0.74724,0.002 c 0.004,-3e-5 0.008,3e-5 0.0119,0 l 0.0863,-2.82618 -0.0434,-0.0103 c 7.7e-4,3e-5 0.001,-3e-5 0.002,0 l -0.002,-5.1e-4 c -0.41208,-0.0174 -0.83835,-0.0355 -1.28002,-0.0543 -12.84609,-0.54445 -15.97508,-0.65764 -18.09244,-3.02049 z"
       style="fill:#ac2824;stroke:#ac2824;stroke-width:0.264583"
       id="path1540" /><path
       d="m 117.05074,133.09058 -2.83342,1.73737 2.83393,-1.73685 c 0,0 0,-5.2e-4 0,-5.2e-4 z"
       style="fill:#ac2824;stroke:#ac2824;stroke-width:0.264583"
       id="path1539" /><path
       d="m 136.82162,139.00185 c -0.17218,-3.4e-4 -0.34053,-7.8e-4 -0.44028,0 v 0.008 c 0.14496,-0.002 0.28851,-0.003 0.42995,-0.005 z"
       style="fill:#af2d2b;stroke:#af2d2b;stroke-width:0.277577"
       id="path1561" /><path
       d="m 137.33374,138.85716 0.005,0.0294 0.13695,-0.0315 c -0.0545,6.6e-4 -0.10216,0.001 -0.14211,0.002 z"
       style="fill:#af2d2b;stroke:#af2d2b;stroke-width:0.277577"
       id="path1546" /><path
       d="m 136.82214,139.00185 0.002,-5.2e-4 c -0.17301,-3.4e-4 -0.34217,-7.8e-4 -0.44235,0 v 5.2e-4 c 0.0998,-7.8e-4 0.26862,-3.4e-4 0.4408,0 z"
       style="fill:#af2d2b;stroke:#af2d2b;stroke-width:0.277577"
       id="path1560" /><path
       d="m 137.32857,138.82563 -0.42478,-2.43396 0.11524,0.001 0.003,-0.0899 -0.55449,-0.12712 -0.0863,2.82566 c 0.10018,-7.8e-4 0.26934,-3.4e-4 0.44235,0 l -0.002,5.2e-4 c 5.5e-4,0 0.001,0 0.002,0 l 0.11731,-0.0243 0.3979,-0.091 -0.005,-0.03 c -0.0802,8.9e-4 -0.12994,0.001 -0.14625,0.001 z"
       style="fill:#af2d2b;stroke:#af2d2b;stroke-width:0.277577"
       id="path1545" /><path
       d="m 136.46764,136.16792 c 2.9787,0.12585 5.19238,0.21892 6.84093,0.30489 l -6.28954,-0.0796 v -5.2e-4 l -0.11524,-10e-4 0.42478,2.43396 9.89035,-2.2257 c -0.68922,-0.14558 -1.92587,-0.24817 -4.14135,-0.3638 l -0.008,-0.001 -6.60166,-0.0832 z"
       style="fill:#af2d2b;stroke:#af2d2b;stroke-width:0.277577"
       id="path1543" /><path
       d="m 136.46764,136.17567 0.55449,0.12712 -0.003,0.0899 h 5.1e-4 l 0.003,-0.0904 -0.555,-0.12712 z"
       style="fill:#af2d2b;stroke:#af2d2b;stroke-width:0.277577"
       id="path1562" /><path
       d="m 136.46764,136.17463 v 5.2e-4 l 0.555,0.12712 -0.003,0.0904 h -5.1e-4 v 5.2e-4 l 6.28954,0.0796 c -1.64855,-0.086 -3.86223,-0.17904 -6.84093,-0.30489 z"
       style="fill:#af2d2b;stroke:#af2d2b;stroke-width:0.277577"
       id="path1542" /><path
       d="m 136.83403,139.00185 h 10e-4 l 0.10594,-0.0243 -0.11731,0.0243 c 0.004,1e-5 0.007,-1e-5 0.0103,0 z"
       style="fill:#962724;stroke:#962724;stroke-width:0.264583"
       id="path1559" /><path
       d="m 137.0707,139.00237 v -5.2e-4 c -0.075,-3e-5 -0.15574,1.6e-4 -0.23564,0 l -0.0124,0.003 c -0.004,5e-5 -0.008,-6e-5 -0.0114,0 l -0.0419,0.009 c 0.008,0 0.13332,-0.005 0.30127,-0.0114 z"
       style="fill:#962724;stroke:#962724;stroke-width:0.264583"
       id="path1558" /><path
       d="m 137.34045,138.89385 -0.39945,0.0837 -0.10594,0.0243 c 0.0799,1.6e-4 0.16064,-3e-5 0.23564,0 0.0535,-0.002 0.11134,-0.004 0.17105,-0.007 l 0.11162,-0.0258 z"
       style="fill:#962724;stroke:#962724;stroke-width:0.264583"
       id="path1549" /><path
       d="m 137.34045,138.89385 0.0129,0.0749 2.69493,-0.64079 z"
       style="fill:#962724;stroke:#962724;stroke-width:0.264583"
       id="path1548" /><path
       d="m 137.2495,138.99513 c 0.0334,-3.6e-4 0.0698,-10e-4 0.10852,-0.002 l -5.1e-4,-0.002 v -5.2e-4 c -0.0362,9.6e-4 -0.0725,0.003 -0.10801,0.004 z"
       style="fill:#962724;stroke:#962724;stroke-width:0.277577"
       id="path1553" /><path
       d="m 147.31711,136.83144 h 10e-4 c 0,0 0,5.2e-4 0,5.2e-4 l -9.33793,2.13785 c -0.0753,9.6e-4 -0.35245,0.0114 -0.6227,0.0217 l 5.1e-4,0.002 v 5.2e-4 c 1.56189,-0.0232 7.31539,-0.21999 9.67383,-0.24753 1.3656,-0.17012 1.0449,-0.48625 1.0449,-1.14463 0,-0.5051 0.0943,-0.78822 -0.8046,-0.98961 l -7.20576,1.71204 7.20162,-1.5043 c 0.0169,0.003 0.0329,0.007 0.0491,0.0114 z"
       style="fill:#962724;stroke:#962724;stroke-width:0.277577"
       id="path1556" /><path
       d="m 137.35337,138.96878 -0.11162,0.0263 c 6.2e-4,0 0.002,1e-5 0.003,0 0.0371,-9.9e-4 0.0748,-0.003 0.11266,-0.004 z"
       style="fill:#962724;stroke:#962724;stroke-width:0.277577"
       id="path1551" /><path
       d="m 137.35337,138.96878 0.005,0.0222 c 0.27014,-0.0103 0.54695,-0.0207 0.62219,-0.0217 l 9.3369,-2.13786 c -0.0162,-0.004 -0.0322,-0.008 -0.0491,-0.0108 l -7.21971,1.50792 0.0181,-0.004 -0.0181,0.004 z"
       style="fill:#962724;stroke:#962724;stroke-width:0.277577"
       id="path1550" /><path
       d="m 112.58641,125.4063 h 5.2e-4 l -0.78238,-4.52221 c -0.032,-0.002 -0.0647,-0.004 -0.0966,-0.006 l 0.84336,4.52583 0.0336,0.002 z"
       style="fill:#bf2d2a;stroke:#bf2d2a;stroke-width:0.264583"
       id="path1583" /><path
       d="m 138.38535,126.63775 -0.0315,-0.003 h -5.2e-4 -5.1e-4 -5.2e-4 l -0.0398,0.0207 0.15864,0.008 -0.0853,-0.0253 z"
       style="fill:#bf2d2a;stroke:#bf2d2a;stroke-width:0.264583"
       id="path1639" /><path
       d="m 138.47165,126.66307 h -5.2e-4 l -0.15864,-0.008 h -5.2e-4 -5.2e-4 v 5.1e-4 l 0.16175,0.008 z"
       style="fill:#bf2d2a;stroke:#bf2d2a;stroke-width:0.264583"
       id="path1642" /><path
       d="m 138.16004,126.57884 -18.14101,-5.2865 c -0.001,-5e-5 -0.003,5e-5 -0.004,0 h -10e-4 c -2.71267,-0.10879 -5.54115,-0.2503 -8.20983,-0.40825 l 0.78238,4.52221 25.5819,1.2423 v -5.2e-4 l -0.009,-0.0687 z"
       style="fill:#bf2d2a;stroke:#bf2d2a;stroke-width:0.264583"
       id="path1635" /><path
       d="m 133.51071,118.33748 c 0.0769,0.0281 0.16303,0.062 0.25322,0.0997 0.17769,0.0743 0.31033,0.12789 0.40773,0.16329 l -0.43254,-0.27853 h -0.002 l 0.002,0.001 z"
       style="fill:#d04f42;stroke:#d04f42;stroke-width:0.264583"
       id="path1631" /><path
       d="m 138.16004,126.57884 -0.001,-0.009 -17.86713,-5.26686 c -0.002,-6e-5 -0.003,6e-5 -0.005,0 h -5.2e-4 c -0.089,-0.004 -0.17849,-0.007 -0.26768,-0.0109 z"
       style="fill:#d04f42;stroke:#d04f42;stroke-width:0.264583"
       id="path1636" /><path
       d="m 132.25291,121.26443 c -0.20079,0.23692 -0.76338,0.23994 -2.56212,0.24908 -2.49882,0.0127 -5.84067,-0.0701 -9.39891,-0.21032 l 17.86713,5.26686 -0.69195,-5.18728 0.10749,-0.002 -0.0165,-0.11575 c -0.18098,-0.0263 -0.23358,-0.10276 -0.23358,-0.27492 0,-0.0778 0.008,-0.13949 0.0238,-0.18448 0.0115,-0.0322 0.027,-0.0561 0.0475,-0.0713 0.0163,-0.0119 0.0361,-0.0188 0.0584,-0.0202 l -3.28248,-2.11357 c -0.0974,-0.0354 -0.23004,-0.089 -0.40773,-0.16329 -0.0906,-0.0378 -0.17707,-0.0716 -0.25425,-0.0997 h -0.002 -5.1e-4 c -7e-4,-2.5e-4 -0.001,-7.8e-4 -0.002,-10e-4 l -0.36432,0.0222 c -1.5e-4,3.1e-4 -3.6e-4,7.2e-4 -5.2e-4,10e-4 -0.27488,0.55061 -0.70121,1.89686 -0.75551,2.41329 -0.0238,0.2268 -0.0405,0.38261 -0.13125,0.49041 0,0 -5.2e-4,5.2e-4 -5.2e-4,5.2e-4 z"
       style="fill:#d04f42;stroke:#d04f42;stroke-width:0.264583"
       id="path1626" /><path
       d="m 138.3068,126.61398 10e-4,0.008 h -5.2e-4 l -0.14728,-0.0429 v 5.1e-4 l 0.009,0.0687 0.14159,0.007 h 5.2e-4 v -5.2e-4 h 5.1e-4 5.2e-4 l 0.0393,-0.0202 -0.0243,-0.002 10e-4,-5.2e-4 h -0.002 l 0.0155,-0.008 z"
       style="fill:#d46056;stroke:#d46056;stroke-width:0.264583"
       id="path1633" /><path
       d="m 138.30732,126.62173 -0.001,-0.008 -0.14728,-0.0439 0.001,0.009 z"
       style="fill:#d46056;stroke:#d46056;stroke-width:0.264583"
       id="path1634" /><path
       d="m 137.57455,121.3807 -0.10749,0.002 0.69195,5.18728 0.14779,0.0439 z"
       style="fill:#d46056;stroke:#d46056;stroke-width:0.264583"
       id="path1632" /><path
       d="m 138.46235,121.36262 -0.8878,0.0181 0.73225,5.23328 0.0357,0.0103 0.001,5.2e-4 h 5.2e-4 l 10.48463,-5.42654 c -0.42804,-0.0109 -0.96665,-0.0149 -1.55753,-0.0124 l -3.17551,0.0636 c -0.002,6e-5 -0.003,-6e-5 -0.004,0 -0.77375,0.0282 -1.47209,0.0654 -1.96835,0.10903 -0.2907,0.0254 -0.47556,0.0417 -0.67645,-0.0109 l -2.63549,0.23978 z"
       style="fill:#d46056;stroke:#d46056;stroke-width:0.264583"
       id="path1530" /><path
       d="m 141.44666,121.34763 c 0.20089,0.0525 0.38575,0.0363 0.67645,0.0109 0.49626,-0.0436 1.1946,-0.0808 1.96835,-0.10903 l -2.55281,0.0517 0.0413,0.0346 z"
       style="fill:#d46056;stroke:#d46056;stroke-width:0.264583"
       id="path1532" /><path
       d="m 151.04659,127.48783 -12.66072,-0.85112 0.002,5.2e-4 12.65865,0.85111 z"
       style="fill:#d45c51;stroke:#d45c51;stroke-width:0.264583"
       id="path1535" /><path
       d="m 149.17384,121.20966 -10.81174,5.42034 0.0238,0.007 h 0.002 l -0.002,-5.2e-4 12.66072,0.85112 -1.70532,-6.26991 c -0.052,-0.003 -0.1082,-0.006 -0.16743,-0.008 z"
       style="fill:#d45c51;stroke:#d45c51;stroke-width:0.264583"
       id="path1534" /><path
       d="m 148.82864,121.19829 -10.48463,5.42654 0.0176,0.005 h 5.2e-4 l 10.81174,-5.42034 c -0.10461,-0.004 -0.21981,-0.008 -0.34468,-0.0114 z"
       style="fill:#d45c51;stroke:#d45c51;stroke-width:0.264583"
       id="path1533" /><path
       d="m 138.38535,126.63775 -0.0238,-0.007 -0.005,0.002 -0.003,0.002 z"
       style="fill:#d45c51;stroke:#d45c51;stroke-width:0.264583"
       id="path1640" /><path
       d="m 138.35125,126.63465 h 0.002 5.1e-4 l 0.008,-0.005 -0.0181,-0.005 -0.0155,0.007 0.0238,0.002 z"
       style="fill:#d45c51;stroke:#d45c51;stroke-width:0.264583"
       id="path1638" /><path
       d="m 149.40948,121.22206 1.69137,6.23011 c 0.024,-0.0211 0.0479,-0.0448 0.0729,-0.0713 0.30146,-0.32006 1.98686,-1.13043 3.30936,-1.59112 1.37314,-0.47834 3.11962,-0.44875 4.77903,0.0465 l 5.73867,-2.80758 c -0.21303,-0.13297 -0.5272,-0.15137 -1.19011,-0.21136 -0.61177,-0.0554 -2.35517,-0.25641 -3.8747,-0.447 -1.51953,-0.19059 -4.30056,-0.48395 -6.17998,-0.65164 -1.87942,-0.1677 -3.67208,-0.37251 -3.98374,-0.45527 -0.0624,-0.0166 -0.18748,-0.0302 -0.36277,-0.0413 z"
       style="fill:#d6665b;stroke:#d6665b;stroke-width:0.264583"
       id="path1647" /><path
       d="m 151.76231,128.12086 0.94982,0.10904 1.21801,0.0935 0.0362,0.0501 0.0822,0.009 0.32039,-0.15244 3.95997,-1.93787 c -0.55715,-0.11155 -1.12695,-0.16342 -1.69809,-0.15089 v 5.1e-4 c -1.71341,0.0376 -3.43861,0.65485 -4.86844,1.97921 z"
       style="fill:#d6665b;stroke:#d6665b;stroke-width:0.264583"
       id="path1682" /><path
       d="m 154.36887,128.23042 4.03438,-1.92237 c -0.0245,-0.005 -0.0493,-0.0106 -0.0739,-0.0155 h -5.1e-4 z"
       style="fill:#d15448;stroke:#d15448;stroke-width:0.264583"
       id="path1700" /><path
       d="m 153.99525,128.41283 0.007,0.01 5.2e-4,5.2e-4 0.42891,0.0444 c 0.37863,-0.16827 0.77836,-0.26206 1.25677,-0.30437 a 6.0157957,5.6828184 0 0 1 1.07642,-0.0915 6.0157957,5.6828184 0 0 1 3.38894,0.98754 l 3.01015,0.31057 c -1.13755,-1.5827 -2.87246,-2.66491 -4.75991,-3.06183 h -5.2e-4 l -4.03438,1.92237 z"
       style="fill:#d15448;stroke:#d15448;stroke-width:0.264583"
       id="path1685" /><path
       d="m 165.00078,123.02867 -5.73867,2.80758 c 0.0269,0.008 0.0533,0.016 0.0801,0.0243 l 5.76657,-2.74711 c -0.0335,-0.0327 -0.0693,-0.0608 -0.108,-0.0847 z"
       style="fill:#d15448;stroke:#d15448;stroke-width:0.264583"
       id="path1648" /><path
       d="m 165.10878,123.11342 -5.76657,2.74711 c 0.4296,0.13237 0.85306,0.29624 1.26194,0.49041 0.99206,0.47116 1.18236,0.60975 2.3549,1.71825 0.69657,0.65852 0.69632,0.65858 2.2536,0.62321 2.29524,-0.0521 2.32694,-0.048 2.03037,0.24857 -0.17932,0.17933 -0.58246,0.26029 -1.52187,0.30644 -0.78519,0.0386 -1.1874,0.0368 -1.31568,0.25063 v 5.2e-4 l 8.83874,0.91312 -2.11667,-3.19412 c -0.18912,0.0258 -0.22678,0.15249 -0.0868,0.38964 0.36725,0.62245 0.29552,0.62601 -0.95239,0.0506 -2.15979,-0.99566 -3.82528,-2.37246 -4.49844,-3.71967 -0.21511,-0.4305 -0.32894,-0.67643 -0.48111,-0.82475 z"
       style="fill:#d15448;stroke:#d15448;stroke-width:0.264583"
       id="path1649" /><path
       d="m 154.13426,128.60507 0.006,0.009 c 0.004,-0.002 0.008,-0.004 0.0119,-0.007 z"
       style="fill:#9d3029;stroke:#9d3029;stroke-width:0.264583"
       id="path1699" /><path
       d="m 163.26394,129.51251 -2.86236,-0.28474 a 6.0157957,5.6828184 0 0 1 2.37866,4.52634 6.0157957,5.6828184 0 0 1 -1.13326,3.32021 c -0.21595,0.29971 -0.46714,0.58432 -0.75448,0.84904 l 1.08986,1.50275 c 1.13749,-1.0234 1.99347,-2.36368 2.33009,-3.87056 0.53125,-2.37822 0.0389,-4.4516 -1.04851,-6.04304 z"
       style="fill:#9d3029;stroke:#9d3029;stroke-width:0.264583"
       id="path1691" /><path
       d="m 154.00249,128.42317 v 5.2e-4 l 0.13177,0.18138 0.0181,0.002 h 5.1e-4 c 0.092,-0.0511 0.18484,-0.0979 0.27854,-0.13953 z"
       style="fill:#9d3029;stroke:#9d3029;stroke-width:0.264583"
       id="path1688" /><path
       d="m 173.32327,130.53053 -0.0134,-0.0196 -8.9457,-0.88935 c -0.039,0.27282 0.14703,0.77171 0.46767,1.70635 0.61888,1.80404 0.61861,1.80419 0.66301,4.71238 0.0163,1.06707 0.0451,2.07017 0.0744,2.67322 l 7.75353,-8.18193 v -5.2e-4 h 5.2e-4 z"
       style="fill:#9d3029;stroke:#9d3029;stroke-width:0.264583"
       id="path1657" /><path
       d="m 164.36413,129.62155 8.9457,0.88935 -0.0656,-0.0992 -8.83874,-0.91312 c -0.0208,0.0349 -0.0346,0.0755 -0.0413,0.12299 z"
       style="fill:#9d3029;stroke:#9d3029;stroke-width:0.264583"
       id="path1660" /><path
       d="m 160.15353,129.05931 a 6.0157957,5.6828184 0 0 1 0.24805,0.16846 l 2.86236,0.28474 c -0.0326,-0.0478 -0.066,-0.0952 -0.0997,-0.14211 v -5.2e-4 h -5.2e-4 z"
       style="fill:#9d3029;stroke:#9d3029;stroke-width:0.264583"
       id="path1690" /><path
       d="m 173.33826,130.514 -0.0284,-0.003 0.0134,0.0196 z"
       style="fill:#cf4b41;stroke:#cf4b41;stroke-width:0.264583"
       id="path1656" /><path
       d="m 173.35789,130.42356 c 0.009,0.0179 0.0163,0.033 0.0222,0.046 l 0.0383,-0.0398 z"
       style="fill:#cf4b41;stroke:#cf4b41;stroke-width:0.264583"
       id="path1661" /><path
       d="m 171.22469,127.21239 c 1.04472,1.51362 1.94658,2.84901 2.13269,3.21066 0,0 0,5.1e-4 0,5.1e-4 h 5.1e-4 l 0.0605,0.006 0.0294,-0.0315 h 4.25245 c -0.27772,-0.22672 -0.61116,-0.4556 -0.99942,-0.68058 -2.7067,-1.56839 -4.76626,-2.4911 -5.47615,-2.50579 z"
       style="fill:#cf4b41;stroke:#cf4b41;stroke-width:0.264583"
       id="path1651" /><path
       d="m 173.38011,130.47059 v -5.2e-4 c 0,0 0,-5.1e-4 0,-5.1e-4 -0.006,-0.013 -0.0134,-0.0281 -0.0222,-0.046 h -5.1e-4 l -0.11266,-0.0119 0.0651,0.0992 0.0289,0.003 5.2e-4,-5.2e-4 h 0.001 v 0 h 5.2e-4 l 0.0315,-0.0336 z"
       style="fill:#cf4b41;stroke:#cf4b41;stroke-width:0.264583"
       id="path1655" /><path
       d="m 171.12754,127.21756 2.11667,3.19412 h 5.1e-4 l 0.11266,0.0119 c 0,0 0,-5.1e-4 0,-5.1e-4 -0.18611,-0.36165 -1.08797,-1.69704 -2.13269,-3.21066 -0.036,-7.4e-4 -0.0683,10e-4 -0.0971,0.005 z"
       style="fill:#cf4b41;stroke:#cf4b41;stroke-width:0.264583"
       id="path1650" /><path
       d="m 173.32379,130.53208 -7.74475,8.3597 c 0.0115,0.2019 0.0226,0.3363 0.0331,0.38344 0.0491,0.22066 0.1786,0.32696 0.3974,0.32556 0.59573,-0.004 10.33376,-0.42921 12.06644,-0.5271 2.41476,-0.13643 2.74781,-0.73598 0.91106,-1.64021 -1.09345,-0.53831 -1.12852,-0.66127 -0.72709,-2.55643 0.36483,-1.7224 0.4269,-1.62932 -1.16582,-1.74873 -1.81602,-0.13615 -1.77074,-0.36019 0.0729,-0.36019 1.84681,0 2.02062,-1.076 0.67025,-2.25361 -1.95025,0.0218 -4.49224,0.0496 -4.49224,0.0496 l -5.1e-4,-0.001 c 0,0 -5.2e-4,0 -5.2e-4,0 z"
       style="fill:#b7322e;stroke:#b7322e;stroke-width:0.264583"
       id="path1658" /><path
       d="m 173.32379,130.53208 -0.001,-5.1e-4 -7.75353,8.18244 c 0.003,0.0637 0.007,0.12337 0.01,0.17777 z"
       style="fill:#b7322e;stroke:#b7322e;stroke-width:0.264583"
       id="path1659" /><path
       d="m 173.38063,130.47162 -0.008,0.008 -0.031,0.0336 0.0465,0.005 h 5.2e-4 5.2e-4 l 5.1e-4,-5.2e-4 5.2e-4,-5.1e-4 h 5.2e-4 v -5.2e-4 -5.2e-4 h 5.1e-4 v -5.1e-4 l 5.2e-4,-5.2e-4 c 2e-5,-2.5e-4 0,-8.4e-4 0,-0.001 0,0 0,-5.2e-4 0,-5.2e-4 0,0 0,-5.2e-4 0,-5.2e-4 v -5.1e-4 c 0,-0.003 -0.001,-0.008 -0.002,-0.0134 -0.002,-0.007 -0.005,-0.0163 -0.009,-0.0269 z"
       style="fill:#b7322e;stroke:#b7322e;stroke-width:0.264583"
       id="path1662" /><path
       d="m 173.44781,130.39876 -0.0672,0.0724 0.0672,-0.0713 h 4.25349 c 0,0 -5.2e-4,-5.1e-4 -5.2e-4,-5.1e-4 0,0 -5.2e-4,-5.2e-4 -5.2e-4,-5.2e-4 z"
       style="fill:#b7322e;stroke:#b7322e;stroke-width:0.264583"
       id="path1652" /><path
       d="m 173.38063,130.47111 v 5.1e-4 l 5.2e-4,5.2e-4 c 0.007,0.0185 0.0116,0.0328 0.0114,0.0408 0,0 0,5.2e-4 0,5.2e-4 0,0 0,5.2e-4 0,5.2e-4 0,0 0,5.1e-4 0,5.1e-4 0,0 -5.2e-4,5.2e-4 -5.2e-4,5.2e-4 l -5.2e-4,5.2e-4 v 5.1e-4 5.2e-4 l -5.1e-4,5.2e-4 v 5.1e-4 l -5.2e-4,5.2e-4 -5.2e-4,5.2e-4 -5.1e-4,5.2e-4 h -5.2e-4 -5.2e-4 l -0.0481,-0.005 5.2e-4,-0.001 h -5.2e-4 l -5.1e-4,5.2e-4 h -0.001 l -5.1e-4,5.2e-4 h 0.001 l -0.007,0.008 -0.009,0.008 v 5.2e-4 l 5.2e-4,0.001 0.0202,0.031 c 0,0 5.2e-4,0 5.2e-4,0 0.0293,-3.2e-4 2.55283,-0.0279 4.49171,-0.0496 -0.0432,-0.0377 -0.0885,-0.0758 -0.13487,-0.11369 h -4.25349 z"
       style="fill:#b7322e;stroke:#b7322e;stroke-width:0.264583"
       id="path1653" /><path
       d="m 137.45466,120.71408 0.0289,0.0176 -0.003,-0.0165 c -0.004,-4.1e-4 -0.009,-8.5e-4 -0.0129,-0.001 -0.005,-2.6e-4 -0.009,-5e-4 -0.0129,0 z"
       style="fill:#d36c5f;stroke:#d36c5f;stroke-width:0.264583"
       id="path1646" /><path
       d="m 134.10758,118.29924 c 0.085,0.0627 0.15408,0.11584 0.20308,0.15555 0.0366,0.0296 0.0618,0.0519 0.0739,0.0656 0.004,0.005 0.007,0.008 0.008,0.0109 0.0174,0.0476 0.0255,0.0822 0.0165,0.1018 0,0 -5.2e-4,5.2e-4 -5.2e-4,5.2e-4 -2.5e-4,3.4e-4 -7.8e-4,10e-4 -10e-4,0.002 0,0 -5.2e-4,5.1e-4 -5.2e-4,5.1e-4 0,0 -5.2e-4,5.2e-4 -5.2e-4,5.2e-4 0,0 -5.1e-4,5.2e-4 -5.1e-4,5.2e-4 0,0 0,5.1e-4 0,5.1e-4 -0.002,0.002 -0.004,0.005 -0.006,0.006 -0.003,0.002 -0.008,0.004 -0.0129,0.006 -0.0108,0.003 -0.0261,0.004 -0.045,0.001 -0.003,-4.5e-4 -0.008,-0.001 -0.0114,-0.002 -0.007,-10e-4 -0.0156,-0.004 -0.0233,-0.006 -0.0351,-0.008 -0.0777,-0.0207 -0.1359,-0.0419 l 3.28248,2.11357 c 0,0 5.2e-4,0 5.2e-4,0 0.004,-5e-4 0.008,-2.6e-4 0.0129,0 0.004,1.8e-4 0.009,6.2e-4 0.0134,10e-4 v -5.1e-4 l -0.046,-0.33177 -0.008,-0.0537 -2.89491,-2.05569 z"
       style="fill:#d36c5f;stroke:#d36c5f;stroke-width:0.264583"
       id="path1525" /><path
       d="m 134.10706,118.29924 -0.36794,0.0227 0.43254,0.27853 c 0.0578,0.021 0.10087,0.0337 0.1359,0.0419 0.0115,0.003 0.0253,0.006 0.0346,0.008 0.0188,0.003 0.0341,0.002 0.045,-10e-4 0.005,-0.001 0.01,-0.003 0.0129,-0.006 0.002,-0.002 0.005,-0.004 0.006,-0.006 0,0 0,-5.1e-4 0,-5.1e-4 0,0 5.1e-4,-5.2e-4 5.1e-4,-5.2e-4 0,0 5.2e-4,-5.2e-4 5.2e-4,-5.2e-4 0,0 5.2e-4,-5.1e-4 5.2e-4,-5.1e-4 2.5e-4,-3.8e-4 2.6e-4,-6.9e-4 5.1e-4,-0.001 0.0103,-0.0193 0.002,-0.054 -0.016,-0.10283 -0.001,-0.003 -0.004,-0.006 -0.008,-0.0109 -0.0121,-0.0137 -0.0373,-0.036 -0.0739,-0.0656 -0.049,-0.0397 -0.11806,-0.0928 -0.20308,-0.15555 z"
       style="fill:#d36c5f;stroke:#d36c5f;stroke-width:0.264583"
       id="path1524" /><path
       d="m 128.36581,114.86276 5.37331,3.45922 0.36794,-0.0227 c -0.77027,-0.56823 -2.83986,-1.96216 -2.94297,-1.96216 -0.0252,0 -0.57998,-0.32117 -1.233,-0.71365 -0.46561,-0.27984 -0.99085,-0.5337 -1.56528,-0.76067 z"
       style="fill:#d36c5f;stroke:#d36c5f;stroke-width:0.264583"
       id="path1523" /><path
       d="m 138.46235,121.36262 0.34882,0.22479 2.63549,-0.23978 c -0.0417,-0.0109 -0.0841,-0.0251 -0.12815,-0.0424 h -5.2e-4 z"
       style="fill:#d36c5f;stroke:#d36c5f;stroke-width:0.264583"
       id="path1529" /><path
       d="m 141.44666,121.34763 0.13333,-0.0119 -0.0413,-0.0346 -0.22014,0.004 c 0.0441,0.0173 0.0865,0.0315 0.12815,0.0424 z"
       style="fill:#d36c5f;stroke:#d36c5f;stroke-width:0.264583"
       id="path1531" /><path
       d="m 137.48153,120.7146 v 5.1e-4 c 0.0964,0.0104 0.24117,0.10053 0.44493,0.27027 0.0645,0.0538 0.11614,0.0973 0.15555,0.13281 v -5.2e-4 c -0.0394,-0.0355 -0.091,-0.079 -0.15555,-0.13281 -0.20376,-0.16974 -0.34853,-0.25986 -0.44493,-0.27026 z"
       style="fill:#d36c5f;stroke:#d36c5f;stroke-width:0.264583"
       id="path1527" /><path
       d="m 128.36477,114.7501 0.001,5.2e-4 -0.19017,-0.0103 0.19017,0.12248 c 0.57443,0.22697 1.09967,0.48083 1.56528,0.76067 0.65302,0.39248 1.2078,0.71365 1.233,0.71365 0.10311,0 2.1727,1.39393 2.94297,1.96216 h 5.2e-4 l 0.42478,-0.0258 2.89491,2.05569 0.0543,0.38551 c 0.0964,0.0104 0.24117,0.10052 0.44493,0.27026 0.0645,0.0538 0.11615,0.0973 0.15555,0.13281 l 0.002,0.002 5.2e-4,5.2e-4 0.37827,0.24288 2.85564,-0.0574 c -0.32824,-0.12926 -0.75457,-0.45187 -1.72496,-1.18598 -0.95178,-0.72003 -2.65307,-1.90247 -3.78065,-2.62774 -4.65683,-2.99529 -5.41579,-3.5909 -5.0462,-3.96049 1.08694,-1.08694 -2.58759,-1.83143 -7.57732,-2.01176 l 5.17695,3.23081 z"
       style="fill:#d36c5f;stroke:#d36c5f;stroke-width:0.264583"
       id="path1518" /><path
       d="m 123.10773,111.47795 0.063,0.0408 h 5.1e-4 5.2e-4 c 0.005,1.9e-4 0.0112,3.3e-4 0.0165,5.2e-4 l -0.0661,-0.0413 z"
       style="fill:#6a1b1b;stroke:#6a1b1b;stroke-width:0.264583"
       id="path1515" /><path
       d="m 123.17284,111.51929 5.0028,3.22099 0.18913,0.01 -5.17642,-3.23029 c -0.005,-1.9e-4 -0.0105,-3.4e-4 -0.0155,-5.2e-4 z"
       style="fill:#c4463a;stroke:#c4463a;stroke-width:0.264583"
       id="path1517" /><path
       d="m 120.30067,111.47847 -5.02709,2.25877 5.19969,-2.25981 c -0.007,3e-5 -0.0139,-2e-5 -0.0207,0 -0.0504,2.6e-4 -0.10098,7.6e-4 -0.15142,0.001 z"
       style="fill:#6a1b1b;stroke:#6a1b1b;stroke-width:0.264583"
       id="path1617" /><path
       d="m 123.17181,111.51877 h -5.2e-4 -5.1e-4 c -0.86554,-0.0309 -1.77063,-0.0453 -2.697,-0.0413 h -5.1e-4 l -5.19969,2.25981 -0.24856,0.11162 0.24856,-0.1111 -0.24753,0.1111 c 2.31041,-0.35451 4.7072,-0.44406 6.95255,-0.2899 0,0 5.2e-4,0 5.2e-4,0 2.24549,0.15421 4.33924,0.55208 6.04252,1.17305 l 0.154,0.008 z"
       style="fill:#c4463a;stroke:#c4463a;stroke-width:0.264583"
       id="path1516" /><path
       d="m 120.39575,111.43558 -0.0946,0.0424 c 0.0573,-3.9e-4 0.11493,-3e-4 0.17209,-5.2e-4 h 5.1e-4 l 0.0884,-0.0387 z"
       style="fill:#c4463a;stroke:#c4463a;stroke-width:0.264583"
       id="path1513" /><path
       d="m 120.56215,111.43868 -0.0884,0.0387 c 0.92637,-0.004 1.83146,0.0105 2.697,0.0413 l -0.063,-0.0408 z"
       style="fill:#c4463a;stroke:#c4463a;stroke-width:0.264583"
       id="path1514" /><path
       d="m 153.96631,128.37356 -0.0362,-0.0501 -1.21801,-0.0935 z"
       style="fill:#982a21;stroke:#982a21;stroke-width:0.264583"
       id="path1683" /><path
       d="m 153.99525,128.41283 -0.0155,0.008 0.0222,0.002 z"
       style="fill:#982a21;stroke:#982a21;stroke-width:0.264583"
       id="path1686" /><path
       d="m 153.92549,128.44746 0.0532,-0.0264 -0.078,-0.008 z"
       style="fill:#982a21;stroke:#982a21;stroke-width:0.264583"
       id="path1697" /><path
       d="m 154.03349,128.59473 0.10025,0.0103 -0.13125,-0.18138 -0.0238,-0.002 -0.0527,0.0264 z"
       style="fill:#982a21;stroke:#982a21;stroke-width:0.264583"
       id="path1698" /><path
       d="m 154.03349,128.59525 v -5.2e-4 l -0.108,-0.14676 v -5.1e-4 l -0.23306,0.11369 z"
       style="fill:#982a21;stroke:#982a21;stroke-width:0.264583"
       id="path1696" /><path
       d="m 154.07483,128.65158 c 0.0217,-0.0128 0.0439,-0.0256 0.0656,-0.0377 l -0.006,-0.008 -0.10025,-0.0103 z"
       style="fill:#982a21;stroke:#982a21;stroke-width:0.264583"
       id="path1694" /><path
       d="m 161.98236,139.42611 -1.08986,-1.50275 c -0.008,0.007 -0.0158,0.0145 -0.0238,0.0217 l 1.09503,1.4981 c 0.006,-0.006 0.0125,-0.0115 0.0186,-0.0171 z"
       style="fill:#982a21;stroke:#982a21;stroke-width:0.264583"
       id="path1692" /><path
       d="m 159.7856,140.84877 c 0.7879,-0.347 1.52845,-0.82463 2.17816,-1.4056 l -1.09503,-1.4981 c -0.41692,0.37988 -0.90928,0.71787 -1.48001,0.99994 -1.88925,0.93371 -3.76236,0.74727 -5.26066,-0.0827 a 6.0157957,5.6828184 0 0 1 -3.37912,-5.10822 6.0157957,5.6828184 0 0 1 3.17396,-5.009 c 0.0506,-0.0328 0.10137,-0.0638 0.15193,-0.0935 l -0.0413,-0.0563 -0.34106,-0.0341 0.23306,-0.11369 -0.0253,-0.0341 v -5.2e-4 h 5.1e-4 l 0.078,0.008 0.001,-5.1e-4 h -0.001 l 0.0165,-0.008 -0.0289,-0.0388 v -5.2e-4 l -1.25418,-0.14366 -0.98547,-0.076 c -0.48627,0.456 -0.93794,0.99455 -1.34256,1.62058 -2.76351,4.27569 -0.48146,9.84517 4.59094,11.41274 a 7.7076516,7.7076516 0 0 0 1.89135,0.23564 7.7076516,7.7076516 0 0 0 2.91921,-0.57412 z"
       style="fill:#982a21;stroke:#982a21;stroke-width:0.264583"
       id="path1680" /><path
       d="m 88.043205,133.88175 -3.617351,4.33462 v 5.2e-4 c 3.538939,0.54905 3.459727,0.2778 3.460771,-1.99523 3.73e-4,-0.81149 0.05352,-1.59308 0.15658,-2.33991 z"
       style="fill:#5f1816;stroke:#5f1816;stroke-width:0.264583"
       id="path1612" /><path
       d="m 88.103666,133.48281 -0.01447,-0.007 -4.317566,4.63745 c 0.230656,0.0372 0.448179,0.072 0.653707,0.10387 l 5.16e-4,-5.2e-4 3.617351,-4.33514 v -5.1e-4 c 0.01849,-0.13389 0.03879,-0.26629 0.06046,-0.39791 z"
       style="fill:#5f1816;stroke:#5f1816;stroke-width:0.264583"
       id="path1611" /><path
       d="m 88.1078,133.45542 -0.0186,0.0202 0.01447,0.007 c 0.0015,-0.009 0.0028,-0.0186 0.0041,-0.0274 z"
       style="fill:#5f1816;stroke:#5f1816;stroke-width:0.264583"
       id="path1610" /><path
       d="m 98.906624,125.04456 c 5.78e-4,-1.94332 -5.16e-4,-3.18724 -5.16e-4,-3.1874 l -3.028756,3.25303 c 1.149515,-0.17706 2.256956,-0.20172 3.029272,-0.0656 z"
       style="fill:#b82c25;stroke:#b82c25;stroke-width:0.264583"
       id="path1599" /><path
       d="m 98.887504,127.36535 0.01757,-0.01 c 4.14e-4,-0.40436 8.56e-4,-0.79515 0.001,-1.16737 l -0.0041,-0.002 z"
       style="fill:#5f1816;stroke:#5f1816;stroke-width:0.264583"
       id="path1678" /><path
       d="m 94.701713,126.37316 -4.875671,5.23689 c -0.0949,0.30029 -0.174026,0.60478 -0.236162,0.91106 l 1.785421,-0.99012 a 6.1226544,5.7837625 0 0 1 4.104659,-3.45457 c 0.810694,-0.23382 1.669335,-0.3138 2.506307,-0.21136 l 0.901237,-0.49971 0.01447,-1.17925 -0.01447,-0.008 a 7.6415057,7.6415057 0 0 0 -1.750797,-0.20309 7.6415057,7.6415057 0 0 0 -2.434994,0.39842 z"
       style="fill:#5f1816;stroke:#5f1816;stroke-width:0.264583"
       id="path1669" /><path
       d="m 98.904557,128.05523 c 2.97e-4,-0.23751 2.83e-4,-0.47109 5.17e-4,-0.6997 l -0.01757,0.01 -0.0083,0.68265 c 0.0084,0.002 0.01694,0.005 0.02532,0.007 z"
       style="fill:#5f1816;stroke:#5f1816;stroke-width:0.264583"
       id="path1676" /><path
       d="m 98.879236,128.048 0.0083,-0.68265 -0.901237,0.49971 c 0.301514,0.0369 0.600392,0.0973 0.892969,0.18294 z"
       style="fill:#5f1816;stroke:#5f1816;stroke-width:0.264583"
       id="path1677" /><path
       d="m 98.849264,141.06322 c 0.0055,-0.60307 0.01047,-1.22926 0.01499,-1.87172 a 6.1226544,5.7837625 0 0 1 -0.119373,0.0336 l -0.02222,1.86656 a 7.6415057,7.6415057 0 0 0 0.126608,-0.0284 z"
       style="fill:#5f1816;stroke:#5f1816;stroke-width:0.264583"
       id="path1675" /><path
       d="m 95.23243,141.01672 a 7.6415057,7.6415057 0 0 0 1.904277,0.24081 7.6415057,7.6415057 0 0 0 1.585949,-0.16588 l 0.02222,-1.86656 a 6.1226544,5.7837625 0 0 1 -1.677934,0.22118 6.1226544,5.7837625 0 0 1 -6.122623,-5.78363 6.1226544,5.7837625 0 0 1 0.430981,-2.13113 l -1.785421,0.99012 c -0.01783,0.0879 -0.03406,0.17585 -0.04909,0.26406 a 7.6415057,7.6415057 0 0 0 -0.04548,0.83044 7.6415057,7.6415057 0 0 0 3.402377,6.35776 c 5.12e-4,2.7e-4 0.001,7.5e-4 0.0015,10e-4 0.138443,0.0746 0.264243,0.15433 0.356567,0.22376 a 7.6415057,7.6415057 0 0 0 0.531751,0.28577 c 0.114099,0.0177 0.228094,0.0586 0.284737,0.10593 0.02132,0.0178 0.06383,0.0404 0.116272,0.0651 a 7.6415057,7.6415057 0 0 0 0.09509,0.0408 c 0.224073,0.0937 0.580454,0.21344 0.948779,0.3204 z"
       style="fill:#5f1816;stroke:#5f1816;stroke-width:0.264583"
       id="path1665" /><path
       d="m 93.602555,153.93996 c -0.02749,0.14588 -0.05509,0.28749 -0.08371,0.42426 -0.07974,0.38098 -0.128872,0.61135 -0.146762,0.69195 0.07085,0 0.141697,2.3e-4 0.212907,0.001 l 0.173633,-1.09295 c -0.05109,-0.008 -0.103343,-0.0163 -0.156063,-0.0243 z"
       style="font-style:italic;font-weight:bold;font-size:29.9861px;font-family:Sitka;-inkscape-font-specification:'Sitka Bold Italic';fill:url(#linearGradient1723);stroke-width:0"
       id="path1714" /><path
       d="m 92.759196,148.43332 c -0.96844,0 -1.856956,0.0713 -2.66547,0.21342 -0.808514,0.14216 -1.674792,0.37313 -2.598808,0.69298 l -0.65319,2.7988 h 0.559655 c 0.373161,-0.23989 0.835107,-0.51989 1.385962,-0.83974 0.550856,-0.32874 1.110859,-0.61329 1.679484,-0.85318 0.144378,-0.0622 0.284121,-0.11666 0.419613,-0.1633 0.270984,-0.0933 0.524199,-0.15547 0.759644,-0.18655 0.117722,-0.0156 0.231192,-0.0233 0.340031,-0.0233 0.621933,0 1.08843,0.16881 1.399397,0.50643 0.319852,0.33762 0.479558,0.81322 0.479558,1.42627 0,0.14201 -0.01004,0.30533 -0.02997,0.48938 -0.01998,0.18429 -0.04994,0.38993 -0.08992,0.6165 -0.04562,0.29086 -0.09334,0.56731 -0.142627,0.82889 0.05272,0.008 0.104975,0.0162 0.156063,0.0243 l -0.173633,1.09295 c -0.07121,-8e-4 -0.142058,-0.001 -0.212907,-0.001 2e-6,1.9e-4 2e-6,8.4e-4 0,0.001 l -0.866097,3.77135 c -0.293197,0.37316 -0.635364,0.65771 -1.026294,0.85318 -0.390928,0.1955 -0.826602,0.293 -1.30638,0.293 -0.515316,0 -0.883756,-0.16426 -1.105875,-0.49299 -0.213235,-0.32874 -0.319877,-0.72448 -0.319877,-1.18649 0,-0.9951 0.235524,-1.71884 0.706416,-2.17196 0.479778,-0.46201 1.088293,-0.75515 1.825729,-0.87954 0.679112,-0.12128 1.376483,-0.18358 2.092378,-0.18758 0.01789,-0.0806 0.06702,-0.31097 0.146762,-0.69195 0.02863,-0.13677 0.05623,-0.27838 0.08371,-0.42426 -0.12147,-0.0186 -0.247126,-0.0372 -0.377238,-0.0558 -0.177695,-0.0267 -0.359639,-0.0489 -0.54622,-0.0667 -0.18658,-0.0266 -0.373075,-0.0442 -0.559655,-0.0532 -0.177696,-0.0179 -0.355606,-0.0269 -0.533301,-0.0269 -0.772975,0 -1.545747,0.0889 -2.318722,0.26665 -0.772975,0.16881 -1.479547,0.44426 -2.11925,0.8263 -0.630819,0.38205 -1.141793,0.88847 -1.532723,1.51929 -0.382045,0.62193 -0.573092,1.38612 -0.573092,2.29237 0,0.65747 0.137984,1.23919 0.413412,1.74563 0.275428,0.49754 0.657521,0.88419 1.146183,1.15962 0.497547,0.27542 1.079272,0.41341 1.74563,0.41341 0.586395,0 1.110506,-0.0758 1.572514,-0.22686 0.462008,-0.15104 0.893129,-0.38202 1.292944,-0.69298 0.399815,-0.31986 0.795044,-0.71964 1.185974,-1.19941 0.03554,0.47089 0.177557,0.86208 0.426331,1.17305 0.248773,0.30208 0.564667,0.52851 0.946712,0.67955 0.382045,0.1421 0.790411,0.2129 1.225765,0.2129 0.657473,0 1.315016,-0.0708 1.972489,-0.2129 0.666358,-0.14216 1.288526,-0.39082 1.866036,-0.74621 v -0.87953 h -0.333313 c -0.16881,0.0711 -0.377544,0.15097 -0.626318,0.23977 -0.248774,0.0888 -0.462059,0.13333 -0.639754,0.13333 -0.284313,0 -0.555212,-0.0935 -0.81287,-0.28009 -0.248774,-0.18658 -0.373104,-0.43069 -0.373104,-0.73277 0,-0.2932 0.01769,-0.57775 0.05323,-0.85318 0.04442,-0.27542 0.09749,-0.55087 0.159681,-0.8263 0.07108,-0.28432 0.137797,-0.56835 0.199987,-0.85266 l 0.77308,-3.4122 c 0.07108,-0.31985 0.128696,-0.64836 0.173116,-0.98598 0.05331,-0.34651 0.0801,-0.68413 0.0801,-1.01286 0,-0.61305 -0.15112,-1.11492 -0.453202,-1.50585 -0.302082,-0.39982 -0.697312,-0.71116 -1.185974,-0.93328 -0.479778,-0.22212 -0.995303,-0.37732 -1.546159,-0.46612 -0.541971,-0.0978 -1.05698,-0.14676 -1.545642,-0.14676 z"
       style="font-style:italic;font-weight:bold;font-size:29.9861px;font-family:Sitka;-inkscape-font-specification:'Sitka Bold Italic';fill:url(#linearGradient1724);stroke-width:0"
       id="path1713" /><path
       d="m 80.138261,148.43332 c -0.719666,0 -1.434824,0.0889 -2.145606,0.26665 -0.701896,0.16881 -1.346303,0.43112 -1.932698,0.78651 -0.57751,0.35539 -1.044007,0.80369 -1.399398,1.34566 -0.346506,0.53308 -0.519865,1.16839 -0.519865,1.90582 0,0.95067 0.249177,1.68404 0.746725,2.19935 0.497547,0.50643 1.017107,0.89711 1.559078,1.17254 0.284312,0.14216 0.590587,0.28418 0.919323,0.42633 0.337622,0.13327 0.671203,0.26215 0.999939,0.38654 0.479778,0.19547 0.910383,0.4133 1.292428,0.65319 0.39093,0.23989 0.586527,0.62653 0.586527,1.15962 0,0.39093 -0.09754,0.72855 -0.293005,1.01286 -0.18658,0.27543 -0.466582,0.4882 -0.839742,0.63924 -0.364276,0.15106 -0.817636,0.22686 -1.359607,0.22686 -0.568625,0 -1.083634,-0.0844 -1.545642,-0.25322 -0.453123,-0.16881 -0.82208,-0.33762 -1.106392,-0.50643 -0.151042,-0.0977 -0.306196,-0.22206 -0.466122,-0.3731 -0.159926,-0.15104 -0.253436,-0.33754 -0.280086,-0.55966 l -0.15968,-1.49293 h -1.092957 l -0.826306,3.79822 c 0.550856,0.19546 1.239223,0.38651 2.065507,0.57309 0.826284,0.18659 1.803755,0.28009 2.932121,0.28009 0.693012,0 1.408169,-0.0667 2.145605,-0.19999 0.746321,-0.12439 1.43924,-0.34678 2.078943,-0.66663 0.639704,-0.32873 1.155229,-0.77703 1.546159,-1.34565 0.399815,-0.56863 0.599447,-1.29289 0.599447,-2.17248 0,-0.92402 -0.284036,-1.63059 -0.852662,-2.11925 -0.55974,-0.48866 -1.244073,-0.91472 -2.052587,-1.27899 -0.266544,-0.12439 -0.559682,-0.25782 -0.879533,-0.39998 -0.319852,-0.14215 -0.622092,-0.27559 -0.906405,-0.39997 -0.293197,-0.12439 -0.604023,-0.31999 -0.93276,-0.58653 -0.328736,-0.26654 -0.492993,-0.67946 -0.492993,-1.2392 0,-0.60417 0.235524,-1.05701 0.706417,-1.35909 0.479778,-0.31097 0.98165,-0.46664 1.505851,-0.46664 0.488663,0 0.910682,0.0576 1.266073,0.17312 0.355391,0.1155 0.666216,0.25348 0.93276,0.41341 0.16881,0.0977 0.315379,0.22206 0.439766,0.3731 0.133274,0.14216 0.204524,0.31097 0.213424,0.50643 l 0.03979,1.45263 h 1.146184 l 0.839742,-3.78479 c -0.586395,-0.14215 -1.297001,-0.267 -2.13217,-0.37362 -0.826283,-0.11551 -1.608157,-0.17311 -2.345593,-0.17311 z"
       style="font-style:italic;font-weight:bold;font-size:29.9861px;font-family:Sitka;-inkscape-font-specification:'Sitka Bold Italic';fill:url(#linearGradient1725);stroke-width:0"
       id="path1711" /><path
       d="m 80.138261,148.43332 c 0.737436,0 1.51931,0.0576 2.345593,0.17311 0.835169,0.10662 1.545775,0.23147 2.13217,0.37362 l -0.839742,3.78479 h -1.146184 l -0.03979,-1.45263 c -0.0089,-0.19546 -0.08015,-0.36427 -0.213424,-0.50643 -0.124387,-0.15104 -0.270956,-0.27537 -0.439766,-0.3731 -0.266544,-0.15993 -0.577369,-0.29791 -0.93276,-0.41341 -0.355391,-0.11551 -0.77741,-0.17312 -1.266073,-0.17312 -0.524201,0 -1.026073,0.15567 -1.505851,0.46664 -0.470893,0.30208 -0.706417,0.75492 -0.706417,1.35909 0,0.55974 0.164257,0.97266 0.492993,1.2392 0.328737,0.26654 0.639563,0.46214 0.93276,0.58653 0.284313,0.12438 0.586553,0.25782 0.906405,0.39997 0.319851,0.14216 0.612989,0.27559 0.879533,0.39998 0.808514,0.36427 1.492847,0.79033 2.052587,1.27899 0.568626,0.48866 0.852662,1.19523 0.852662,2.11925 0,0.87959 -0.199632,1.60385 -0.599447,2.17248 -0.39093,0.56862 -0.906455,1.01692 -1.546159,1.34565 -0.639703,0.31985 -1.332622,0.54224 -2.078943,0.66663 -0.737436,0.13327 -1.452593,0.19999 -2.145605,0.19999 -1.128366,0 -2.105837,-0.0935 -2.932121,-0.28009 -0.826284,-0.18658 -1.514651,-0.37763 -2.065507,-0.57309 l 0.826306,-3.79822 h 1.092957 l 0.15968,1.49293 c 0.02665,0.22212 0.12016,0.40862 0.280086,0.55966 0.159926,0.15104 0.31508,0.27537 0.466122,0.3731 0.284312,0.16881 0.653269,0.33762 1.106392,0.50643 0.462008,0.16881 0.977017,0.25322 1.545642,0.25322 0.541971,0 0.995331,-0.0758 1.359607,-0.22686 0.37316,-0.15104 0.653162,-0.36381 0.839742,-0.63924 0.195465,-0.28431 0.293005,-0.62193 0.293005,-1.01286 0,-0.53309 -0.195597,-0.91973 -0.586527,-1.15962 -0.382045,-0.23989 -0.81265,-0.45772 -1.292428,-0.65319 -0.328736,-0.12439 -0.662317,-0.25327 -0.999939,-0.38654 -0.328736,-0.14215 -0.635011,-0.28417 -0.919323,-0.42633 -0.541971,-0.27543 -1.061531,-0.66611 -1.559078,-1.17254 -0.497548,-0.51531 -0.746725,-1.24868 -0.746725,-2.19935 0,-0.73743 0.173359,-1.37274 0.519865,-1.90582 0.355391,-0.54197 0.821888,-0.99027 1.399398,-1.34566 0.586395,-0.35539 1.230802,-0.6177 1.932698,-0.78651 0.710782,-0.1777 1.42594,-0.26665 2.145606,-0.26665 z"
       style="font-style:italic;font-weight:bold;font-size:29.9861px;font-family:Sitka;-inkscape-font-specification:'Sitka Bold Italic';fill:url(#linearGradient1726);stroke-width:0"
       id="path1710" /><path
       d="m 71.515531,148.43332 c -0.648588,0 -1.239415,0.15112 -1.772501,0.4532 -0.524202,0.30208 -1.008386,0.68417 -1.452625,1.14618 -0.444233,0.46201 -0.875364,0.93709 -1.292944,1.42576 l 0.519865,-2.91869 -5.784143,1.05317 0.01344,0.63975 1.146183,0.39946 c 0.155483,0.0555 0.27791,0.13512 0.367419,0.23926 0.05358,0.0624 0.09564,0.13411 0.125574,0.21394 0.01999,0.0533 0.03674,0.10772 0.05064,0.16382 0.04162,0.16814 0.05621,0.34954 0.04289,0.5426 -0.0089,0.21323 -0.03568,0.42652 -0.0801,0.63975 -0.04442,0.21324 -0.08435,0.39973 -0.119889,0.55966 l -1.866036,8.72918 h 3.958414 v -0.71933 c 0,-0.31986 0.0045,-0.63978 0.01344,-0.95964 0.01777,-0.32873 0.0486,-0.59508 0.09302,-0.79943 l 1.452624,-6.77065 c 0.355391,-0.35539 0.693007,-0.61718 1.012858,-0.786 0.328737,-0.17769 0.657767,-0.29746 0.986504,-0.35966 0.328736,-0.0622 0.666352,-0.0935 1.012858,-0.0935 0.257658,0 0.519455,0.0576 0.785998,0.17312 0.275428,0.1155 0.439683,0.24893 0.492993,0.39997 l 0.333313,0.99943 h 1.079521 l 0.879533,-3.97134 c -0.284313,-0.10661 -0.559763,-0.20008 -0.826306,-0.28008 -0.133272,-0.04 -0.297591,-0.07 -0.492994,-0.0899 -0.195402,-0.02 -0.421886,-0.03 -0.679545,-0.03 z"
       style="font-style:italic;font-weight:bold;font-size:29.9861px;font-family:Sitka;-inkscape-font-specification:'Sitka Bold Italic';fill:url(#linearGradient1727);stroke-width:0"
       id="path1709" /><path
       d="m 71.515531,148.43332 c 0.515317,0 0.905996,0.0399 1.172539,0.11989 0.266543,0.08 0.541993,0.17347 0.826306,0.28008 l -0.879533,3.97134 h -1.079521 l -0.333313,-0.99943 c -0.05331,-0.15104 -0.217565,-0.28447 -0.492993,-0.39997 -0.266543,-0.1155 -0.52834,-0.17312 -0.785998,-0.17312 -0.346506,0 -0.684122,0.0313 -1.012858,0.0935 -0.328737,0.0622 -0.657767,0.18197 -0.986504,0.35966 -0.319851,0.16882 -0.657467,0.43061 -1.012858,0.786 l -1.452624,6.77065 c -0.04442,0.20435 -0.07525,0.4707 -0.09302,0.79943 -0.0089,0.31986 -0.01344,0.63978 -0.01344,0.95964 v 0.71933 H 61.4133 l 1.866036,-8.72918 c 0.03554,-0.15993 0.07547,-0.34642 0.119889,-0.55966 0.04442,-0.21323 0.07121,-0.42652 0.0801,-0.63975 0.01331,-0.19306 -0.0013,-0.37446 -0.04289,-0.5426 -0.01391,-0.0561 -0.03065,-0.11051 -0.05064,-0.16382 -0.02994,-0.0798 -0.072,-0.15153 -0.125574,-0.21394 -0.0358,-0.0417 -0.07664,-0.0793 -0.12299,-0.11317 -0.04635,-0.0339 -0.09812,-0.0638 -0.155029,-0.0899 -0.02846,-0.013 -0.0583,-0.0251 -0.0894,-0.0362 l -1.146183,-0.39946 -0.01344,-0.63975 5.784143,-1.05317 -0.519865,2.91869 c 0.41758,-0.48867 0.848711,-0.96375 1.292944,-1.42576 0.444239,-0.46201 0.928423,-0.8441 1.452625,-1.14618 0.533086,-0.30208 1.123913,-0.4532 1.772501,-0.4532 z"
       style="font-style:italic;font-weight:bold;font-size:29.9861px;font-family:Sitka;-inkscape-font-specification:'Sitka Bold Italic';fill:url(#linearGradient1728);stroke-width:0"
       id="path1708" /><path
       d="m 54.430269,148.43332 c -1.128365,0 -2.150314,0.23097 -3.065446,0.69298 -0.915131,0.45312 -1.706107,1.07529 -2.372465,1.86603 -0.657473,0.78186 -1.163896,1.67038 -1.519287,2.66547 -0.355391,0.9951 -0.532784,2.02563 -0.532784,3.09181 0,1.11948 0.230973,2.07471 0.692981,2.86545 0.470893,0.79075 1.123885,1.39471 1.959054,1.8123 0.835168,0.41758 1.798986,0.62631 2.891813,0.62631 1.110596,0 2.123443,-0.22642 3.038574,-0.67954 0.915131,-0.46201 1.701556,-1.08418 2.359029,-1.86604 0.666358,-0.78186 1.177332,-1.66582 1.532723,-2.65203 0.364276,-0.98621 0.54622,-2.00361 0.54622,-3.05201 0,-1.13725 -0.226422,-2.10562 -0.679545,-2.90525 -0.453123,-0.79963 -1.092979,-1.40814 -1.919263,-1.82573 -0.826283,-0.42647 -1.803238,-0.63975 -2.931604,-0.63975 z m -0.253214,1.33273 c 0.657472,0 1.119419,0.21329 1.385962,0.63976 0.275428,0.42647 0.439683,0.93289 0.492993,1.51928 0.06219,0.5864 0.09302,1.12416 0.09302,1.61283 0,0.36427 -0.03993,0.8439 -0.11989,1.43918 -0.07108,0.5864 -0.190857,1.2126 -0.359668,1.87896 -0.159926,0.65747 -0.373211,1.27964 -0.639754,1.86603 -0.266543,0.5864 -0.595056,1.06603 -0.985986,1.43919 -0.39093,0.37316 -0.848842,0.55966 -1.373043,0.55966 -0.586395,0 -1.021551,-0.1956 -1.305864,-0.58653 -0.284312,-0.39093 -0.470805,-0.85287 -0.559655,-1.38596 -0.07996,-0.54197 -0.11989,-1.03474 -0.11989,-1.47898 0,-0.38204 0.03537,-0.88443 0.106454,-1.50637 0.07108,-0.62193 0.186823,-1.27492 0.346749,-1.95905 0.16881,-0.69301 0.38613,-1.34601 0.652673,-1.95905 0.275428,-0.61305 0.608492,-1.11038 0.999422,-1.49242 0.39093,-0.39093 0.853393,-0.58653 1.386479,-0.58653 z"
       style="font-style:italic;font-weight:bold;font-size:29.9861px;font-family:Sitka;-inkscape-font-specification:'Sitka Bold Italic';fill:url(#linearGradient1729);stroke-width:0"
       id="path1707" /><path
       d="m 160.32768,148.53977 -5.09116,1.05317 0.0134,0.63975 1.45262,0.39946 c 0.17769,0.05 0.30827,0.11724 0.39222,0.20205 0.0502,0.0508 0.0841,0.10838 0.10077,0.17157 0.0444,0.15993 0.0844,0.36411 0.11989,0.61288 l 1.73271,10.22212 h 1.83917 l 1.94561,-2.63912 4.06487,-6.58358 c 0.23989,-0.39093 0.529,-0.82153 0.86662,-1.29242 0.33762,-0.4709 0.66158,-0.90657 0.97255,-1.30638 0.31985,-0.4087 0.55537,-0.69274 0.70641,-0.85266 v -0.39998 h -4.02456 v 0.3731 c 0,0.25766 -0.0136,0.62207 -0.0403,1.09296 -0.0178,0.47089 -0.11531,1.03038 -0.29301,1.67897 -0.16881,0.64859 -0.48419,1.37285 -0.94619,2.17247 l -2.35903,4.038 -0.28009,-1.7725 z"
       style="font-style:italic;font-weight:bold;font-size:29.9861px;font-family:Sitka;-inkscape-font-specification:'Sitka Bold Italic';fill:url(#linearGradient1730);stroke-width:0"
       id="path1721" /><path
       d="m 132.38055,148.53977 -5.94382,1.05317 0.0134,0.63975 1.10588,0.39946 c 0.10328,0.0367 0.19317,0.0784 0.27027,0.12506 0.12829,0.0777 0.22096,0.16951 0.27647,0.27491 0.0978,0.15993 0.11996,0.35553 0.0667,0.58653 l -1.38648,6.02392 c -0.0533,0.22212 -0.0973,0.45765 -0.13281,0.70642 -0.0266,0.23989 -0.0403,0.46631 -0.0403,0.67955 0,1.01286 0.29769,1.75481 0.89297,2.2257 0.37761,0.29431 0.80877,0.49681 1.29398,0.6072 0.29099,0.0662 0.60206,0.0992 0.93173,0.0992 0.35538,-1e-5 0.76831,-0.0399 1.2392,-0.11989 0.23544,-0.0355 0.48178,-0.10222 0.73949,-0.19999 0.25758,-0.0978 0.52694,-0.2267 0.80667,-0.38654 0.56862,-0.31985 1.164,-0.84396 1.78593,-1.57251 0.0267,0.45309 0.15555,0.84837 0.38654,1.18597 0.23101,0.32874 0.53728,0.5865 0.91933,0.77308 0.19546,0.0889 0.40184,0.15515 0.6196,0.19947 0.21761,0.0443 0.44707,0.0667 0.68678,0.0667 0.90622,0 1.66589,-0.093 2.27893,-0.27957 0.62193,-0.19546 1.14149,-0.42188 1.55908,-0.67954 v -0.87953 h -0.33332 c -0.21323,0.10661 -0.45279,0.19503 -0.71933,0.26613 -0.25765,0.0711 -0.44012,0.10697 -0.54674,0.10697 -0.42647,0 -0.73274,-0.12433 -0.91932,-0.3731 -0.17765,-0.24878 -0.26665,-0.46206 -0.26665,-0.63976 0,-0.25766 0.0399,-0.61348 0.11988,-1.0666 0.08,-0.46201 0.17751,-0.95023 0.29301,-1.46554 l 1.79937,-8.12974 h -3.93154 c 0,0.24877 -0.004,0.62176 -0.0134,1.11931 -0.009,0.49755 -0.0573,0.95091 -0.14624,1.35961 l -1.63918,7.44967 c -0.37316,0.46201 -0.78659,0.76425 -1.23971,0.90641 -0.45312,0.13328 -0.86201,0.19998 -1.22629,0.19999 -0.23302,0 -0.44003,-0.0231 -0.62063,-0.0693 -0.2408,-0.0616 -0.43526,-0.16432 -0.58291,-0.30799 -0.0369,-0.036 -0.0712,-0.0747 -0.10232,-0.11576 -0.23984,-0.32873 -0.34194,-0.78665 -0.30644,-1.37304 0.0178,-0.231 0.0532,-0.49735 0.10645,-0.79943 0.0533,-0.30209 0.11092,-0.60433 0.17312,-0.90641 z"
       style="font-style:italic;font-weight:bold;font-size:29.9861px;font-family:Sitka;-inkscape-font-specification:'Sitka Bold Italic';fill:url(#linearGradient1731);stroke-width:0"
       id="path1720" /><path
       d="m 176.92408,153.93996 c -0.0275,0.14588 -0.0556,0.28748 -0.0842,0.42426 -0.0797,0.38098 -0.12834,0.61135 -0.14624,0.69195 0.0709,0 0.1417,2.3e-4 0.2129,0.001 l 0.17312,-1.09295 c -0.0511,-0.008 -0.10285,-0.0163 -0.15555,-0.0243 z"
       style="font-style:italic;font-weight:bold;font-size:29.9861px;font-family:Sitka;-inkscape-font-specification:'Sitka Bold Italic';fill:url(#linearGradient1732);stroke-width:0"
       id="path1718" /><path
       d="m 176.08021,148.43332 c -0.96844,0 -1.85696,0.0713 -2.66547,0.21342 -0.80852,0.14216 -1.67479,0.37313 -2.59881,0.69298 l -0.65267,2.7988 h 0.55965 c 0.37316,-0.23989 0.83511,-0.51989 1.38596,-0.83974 0.55086,-0.32874 1.11035,-0.61329 1.67897,-0.85318 0.14438,-0.0622 0.28412,-0.11666 0.41961,-0.1633 0.27099,-0.0933 0.5242,-0.15547 0.75965,-0.18655 0.11772,-0.0156 0.23119,-0.0233 0.34003,-0.0233 0.62193,0 1.08843,0.16881 1.3994,0.50643 0.31985,0.33762 0.48007,0.81322 0.48007,1.42627 0,0.14201 -0.01,0.30533 -0.03,0.48938 -0.02,0.18429 -0.0499,0.38993 -0.0899,0.6165 -0.0456,0.29086 -0.0933,0.56731 -0.14263,0.82889 0.0527,0.008 0.10447,0.0162 0.15555,0.0243 l -0.17312,1.09295 c -0.0712,-8e-4 -0.14205,-0.001 -0.2129,-0.001 0,1.9e-4 0,8.4e-4 0,0.001 l -0.86662,3.77135 c -0.29319,0.37316 -0.63536,0.65771 -1.02629,0.85318 -0.39093,0.1955 -0.82609,0.293 -1.30586,0.293 -0.51532,0 -0.88376,-0.16426 -1.10588,-0.49299 -0.21323,-0.32874 -0.31988,-0.72448 -0.31988,-1.18649 0,-0.9951 0.23501,-1.71884 0.7059,-2.17196 0.47978,-0.46201 1.08881,-0.75515 1.82625,-0.87954 0.67911,-0.12128 1.37648,-0.18358 2.09238,-0.18758 0.0179,-0.0806 0.0665,-0.31097 0.14624,-0.69195 0.0286,-0.13678 0.0567,-0.27838 0.0842,-0.42426 -0.12145,-0.0186 -0.24714,-0.0372 -0.37723,-0.0558 -0.1777,-0.0267 -0.35964,-0.0489 -0.54622,-0.0667 -0.18658,-0.0266 -0.3736,-0.0442 -0.56018,-0.0532 -0.17769,-0.0179 -0.35508,-0.0269 -0.53278,-0.0269 -0.77297,0 -1.54626,0.0889 -2.31924,0.26665 -0.57973,0.1266 -1.12157,0.3131 -1.62626,0.55965 -0.16808,0.0821 -0.33268,0.17122 -0.49247,0.26665 -0.63082,0.38205 -1.1418,0.88847 -1.53272,1.51929 -0.38205,0.62193 -0.5731,1.38612 -0.5731,2.29237 0,0.65747 0.13799,1.23919 0.41341,1.74563 0.27543,0.49754 0.65701,0.88419 1.14567,1.15962 0.49755,0.27542 1.07979,0.41341 1.74615,0.41341 0.58639,0 1.1105,-0.0758 1.57251,-0.22686 0.46201,-0.15104 0.89313,-0.38202 1.29295,-0.69298 0.39979,-0.31985 0.79505,-0.71967 1.18597,-1.19941 0.009,0.11772 0.0243,0.23021 0.0465,0.33796 0.0666,0.32304 0.19334,0.60198 0.37982,0.83509 0.24877,0.30208 0.56415,0.52851 0.9462,0.67955 0.38204,0.1421 0.79092,0.2129 1.22628,0.2129 0.32856,0 0.6574,-0.0178 0.98598,-0.0532 0.32876,-0.0355 0.65777,-0.0886 0.98651,-0.15968 0.33302,-0.071 0.65507,-0.16874 0.96583,-0.29301 0.3109,-0.12436 0.61093,-0.27551 0.89969,-0.4532 v -0.87953 h -0.3328 c -0.16881,0.0711 -0.37806,0.15097 -0.62683,0.23977 -0.24878,0.0888 -0.46155,0.13333 -0.63924,0.13333 -0.28431,0 -0.55573,-0.0935 -0.81339,-0.28009 -0.0933,-0.07 -0.16908,-0.14792 -0.22738,-0.23409 -0.0583,-0.0862 -0.0992,-0.18077 -0.12247,-0.28319 -0.0155,-0.0683 -0.0232,-0.13997 -0.0232,-0.21549 0,-0.2932 0.0177,-0.57775 0.0532,-0.85318 0.0444,-0.27542 0.098,-0.55087 0.1602,-0.8263 0.0711,-0.28432 0.13779,-0.56835 0.19999,-0.85266 l 0.77308,-3.4122 c 0.0711,-0.31985 0.12871,-0.64836 0.17311,-0.98598 0.0533,-0.34651 0.0801,-0.68413 0.0801,-1.01286 0,-0.45979 -0.0848,-0.85685 -0.25476,-1.19166 -0.0566,-0.11161 -0.12292,-0.21646 -0.19844,-0.31419 -0.30208,-0.39982 -0.69783,-0.71116 -1.18649,-0.93328 -0.47978,-0.22212 -0.99479,-0.37732 -1.54564,-0.46612 -0.54197,-0.0978 -1.0575,-0.14676 -1.54616,-0.14676 z"
       style="font-style:italic;font-weight:bold;font-size:29.9861px;font-family:Sitka;-inkscape-font-specification:'Sitka Bold Italic';fill:url(#linearGradient1733);stroke-width:0"
       id="path1717" /><path
       d="m 149.26634,148.43332 c -1.12836,0 -2.15031,0.23097 -3.06544,0.69298 -0.91514,0.45312 -1.70611,1.07529 -2.37247,1.86603 -0.65747,0.78186 -1.1639,1.67038 -1.51929,2.66547 -0.35539,0.9951 -0.53278,2.02563 -0.53278,3.09181 0,1.11948 0.23097,2.07471 0.69298,2.86545 0.47089,0.79075 1.12389,1.39471 1.95905,1.8123 0.83517,0.41758 1.79899,0.62631 2.89182,0.62631 1.11059,0 2.12344,-0.22642 3.03857,-0.67954 0.91513,-0.46201 1.70156,-1.08418 2.35903,-1.86604 0.66636,-0.78186 1.17733,-1.66582 1.53272,-2.65203 0.36428,-0.98621 0.54622,-2.00361 0.54622,-3.05201 0,-1.13725 -0.22642,-2.10562 -0.67954,-2.90525 -0.45313,-0.79963 -1.09298,-1.40814 -1.91926,-1.82573 -0.32613,-0.16832 -0.67593,-0.30376 -1.04904,-0.40566 -0.5721,-0.15619 -1.19974,-0.23409 -1.88257,-0.23409 z m -0.25321,1.33273 c 0.65747,0 1.11942,0.21329 1.38596,0.63976 0.27543,0.42647 0.43969,0.93289 0.49299,1.51928 0.0622,0.5864 0.093,1.12416 0.093,1.61283 0,0.36427 -0.0399,0.8439 -0.11989,1.43918 -0.0711,0.5864 -0.19086,1.2126 -0.35967,1.87896 -0.15992,0.65747 -0.37321,1.27964 -0.63975,1.86603 -0.26655,0.5864 -0.59506,1.06603 -0.98599,1.43919 -0.39093,0.37316 -0.84884,0.55966 -1.37304,0.55966 -0.5864,0 -1.02156,-0.1956 -1.30586,-0.58653 -0.28432,-0.39093 -0.47086,-0.85287 -0.55966,-1.38596 -0.08,-0.54197 -0.11989,-1.03474 -0.11989,-1.47898 0,-0.38204 0.0353,-0.88443 0.10645,-1.50637 0.0711,-0.62193 0.18683,-1.27492 0.34675,-1.95905 0.16881,-0.69301 0.38613,-1.34601 0.65268,-1.95905 0.27542,-0.61305 0.60849,-1.11038 0.99942,-1.49242 0.39093,-0.39093 0.85339,-0.58653 1.38648,-0.58653 z"
       style="font-style:italic;font-weight:bold;font-size:29.9861px;font-family:Sitka;-inkscape-font-specification:'Sitka Bold Italic';fill:url(#linearGradient1734);stroke-width:0"
       id="path1716" /><path
       d="m 108.55151,143.35559 -0.18655,0.81287 1.83917,0.54674 c 0.15992,0.0444 0.2843,0.13741 0.3731,0.27957 0.0977,0.13327 0.1245,0.30208 0.0801,0.50643 l -3.10524,14.0472 c -0.0355,0.18658 -0.12904,0.34629 -0.28008,0.47956 -0.15105,0.13327 -0.32389,0.23534 -0.51935,0.30644 l -1.67949,0.57309 -0.18655,0.81287 h 6.47713 l 0.18655,-0.81287 -1.73271,-0.57309 c -0.19547,-0.0711 -0.3329,-0.16862 -0.4129,-0.29301 -0.0711,-0.13327 -0.0847,-0.29752 -0.0403,-0.49299 l 2.73214,-12.28762 0.95963,2.05207 5.94382,12.54084 h 1.78594 l 1.10639,-3.18482 2.91869,-13.1408 c 0.0444,-0.19547 0.13741,-0.35517 0.27957,-0.47956 0.15104,-0.13327 0.32895,-0.23586 0.5333,-0.30696 l 1.6123,-0.57309 0.18655,-0.81287 h -6.49004 l -0.18655,0.81287 1.79885,0.57309 c 0.19547,0.0622 0.32888,0.16025 0.39998,0.29352 0.0799,0.12439 0.0976,0.28865 0.0532,0.493 l -2.47892,11.16831 -0.85266,-1.82573 -5.45083,-11.51506 z"
       style="font-style:italic;font-weight:bold;font-size:29.9861px;font-family:Sitka;-inkscape-font-specification:'Sitka Bold Italic';fill:url(#linearGradient1735);stroke-width:0"
       id="path1705" /><path
       d="m 41.489457,142.96905 c -1.52818,0 -2.932222,0.29769 -4.211629,0.89297 -1.279407,0.58639 -2.385243,1.39961 -3.318144,2.43913 -0.932901,1.03952 -1.65716,2.23886 -2.172477,3.59823 -0.506432,1.35937 -0.759644,2.80737 -0.759644,4.34444 0,1.56371 0.284036,2.93642 0.852662,4.11809 0.57751,1.17279 1.412963,2.0881 2.50579,2.74557 1.092827,0.65747 2.411948,0.9865 3.957898,0.9865 0.655757,0 1.272776,-0.0553 1.850533,-0.16588 0.377076,-0.0722 0.737785,-0.16804 1.081588,-0.28732 0.870707,-0.30208 1.652581,-0.67104 2.345593,-1.10639 0.701897,-0.44424 1.324065,-0.87081 1.866036,-1.27951 l 0.319877,-1.45263 h -0.586528 c -0.426469,0.30209 -0.937443,0.62657 -1.532723,0.97307 -0.595279,0.34651 -1.226033,0.6442 -1.892391,0.89297 -0.666357,0.23989 -1.31935,0.35967 -1.959053,0.35967 -1.181675,0 -2.123771,-0.25321 -2.825667,-0.75965 -0.693012,-0.51531 -1.190334,-1.23957 -1.492416,-2.17247 -0.302082,-0.9329 -0.453202,-2.02105 -0.453202,-3.26492 0,-1.29718 0.15112,-2.51017 0.453202,-3.63854 0.310967,-1.12836 0.728435,-2.11442 1.252637,-2.95847 0.533086,-0.85294 1.137567,-1.51504 1.812809,-1.98593 0.684127,-0.47978 1.403836,-0.71933 2.159042,-0.71933 0.524201,0 1.137267,0.10664 1.839164,0.31987 0.710781,0.21324 1.310194,0.4619 1.798856,0.74621 0.106618,0.0622 0.191025,0.13754 0.253215,0.22634 0.07108,0.08 0.124657,0.19571 0.160197,0.34675 l 0.573091,2.33216 h 0.879533 l 0.826306,-4.4912 c -0.399814,-0.16881 -0.928476,-0.32852 -1.585949,-0.47956 -0.657473,-0.15992 -1.346358,-0.29335 -2.066024,-0.39997 -0.710782,-0.1066 -1.354672,-0.1602 -1.932182,-0.1602 z"
       style="font-style:italic;font-weight:bold;font-size:29.9861px;font-family:Sitka;-inkscape-font-specification:'Sitka Bold Italic';fill:url(#linearGradient1736);stroke-width:0"
       id="path1703" /><path
       d="m 41.489457,142.96905 c 0.57751,0 1.2214,0.0536 1.932182,0.1602 0.719666,0.10662 1.408551,0.24005 2.066024,0.39997 0.657473,0.15104 1.186135,0.31075 1.585949,0.47956 l -0.826306,4.4912 h -0.879533 l -0.573091,-2.33216 c -0.03554,-0.15104 -0.08912,-0.26678 -0.160197,-0.34675 -0.06219,-0.0888 -0.146597,-0.16415 -0.253215,-0.22634 -0.488662,-0.28431 -1.088075,-0.53297 -1.798856,-0.74621 -0.701897,-0.21323 -1.314963,-0.31987 -1.839164,-0.31987 -0.755206,0 -1.474915,0.23955 -2.159042,0.71933 -0.675242,0.47089 -1.279723,1.13299 -1.812809,1.98593 -0.524202,0.84405 -0.94167,1.83011 -1.252637,2.95847 -0.302082,1.12837 -0.453202,2.34136 -0.453202,3.63854 0,1.24387 0.15112,2.33202 0.453202,3.26492 0.302082,0.9329 0.799404,1.65716 1.492416,2.17247 0.701896,0.50644 1.643992,0.75965 2.825667,0.75965 0.639703,0 1.292696,-0.11978 1.959053,-0.35967 0.666358,-0.24877 1.297112,-0.54646 1.892391,-0.89297 0.59528,-0.3465 1.106254,-0.67098 1.532723,-0.97307 h 0.586528 l -0.319877,1.45263 c -0.541971,0.4087 -1.164139,0.83527 -1.866036,1.27951 -0.693012,0.43535 -1.474886,0.80431 -2.345593,1.10639 -0.343803,0.11928 -0.704512,0.21513 -1.081588,0.28732 -0.577757,0.11058 -1.194776,0.16588 -1.850533,0.16588 -1.54595,0 -2.865071,-0.32903 -3.957898,-0.9865 -1.092827,-0.65747 -1.92828,-1.57278 -2.50579,-2.74557 -0.568626,-1.18167 -0.852662,-2.55438 -0.852662,-4.11809 0,-1.53707 0.253212,-2.98507 0.759644,-4.34444 0.515317,-1.35937 1.239576,-2.55871 2.172477,-3.59823 0.932901,-1.03952 2.038737,-1.85274 3.318144,-2.43913 1.279407,-0.59528 2.683449,-0.89297 4.211629,-0.89297 z"
       style="font-style:italic;font-weight:bold;font-size:29.9861px;font-family:Sitka;-inkscape-font-specification:'Sitka Bold Italic';fill:url(#linearGradient1621);stroke-width:0"
       id="path1702" /><path
       d="m 69.306364,131.91495 c -1.320279,-0.0391 -3.942875,0.0305 -9.151896,0.46457 -10.418049,0.86816 -20.078878,3.88968 -20.078878,3.88968 0,0 -26.748023,6.45897 -26.387537,18.12706 0.360487,11.6681 20.835938,11.30939 20.835938,11.30939 H 184.57168 v -2.28048 c 0,0 -140.819056,0.0695 -147.307805,0 -6.488751,-0.0695 -29.848719,-2.57001 -17.736385,-15.55771 12.112337,-12.98771 51.117294,-15.76545 51.117294,-15.76545 v -5.1e-4 c -0.0043,-0.0126 -0.08003,-0.14932 -1.33842,-0.18655 z"
       style="fill:url(#linearGradient1623);stroke-width:0"
       id="path1701" /><path
       d="m 86.405062,124.88695 -0.05529,0.0326 2.04432,7.20421 c 0.899652,-3.38454 2.948747,-5.81065 5.77174,-6.63629 0.187269,-0.0548 0.377217,-0.10554 0.568958,-0.15193 z"
       style="fill:#6a1b1b;stroke:#6a1b1b;stroke-width:0.264583"
       id="path1663" /><path
       d="m 154.4314,128.46761 c -0.0937,0.0416 -0.18654,0.0884 -0.27854,0.13953 h -5.1e-4 c -0.004,0.003 -0.008,0.005 -0.0119,0.007 -0.0218,0.0122 -0.0438,0.0249 -0.0656,0.0377 -0.0506,0.0297 -0.10131,0.0603 -0.15193,0.093 a 6.0157957,5.6828184 0 0 1 1.76527,-0.58187 c -0.47842,0.0423 -0.87813,0.13609 -1.25677,0.30437 z"
       style="fill:#ad1a1a;stroke:#661814;stroke-width:0"
       id="path1689" /><path
       d="m 100.98867,124.60531 -1.179775,0.65526 -0.001,0.001 z"
       style="fill:#ad1a1a;stroke:#661814;stroke-width:0"
       id="path1595" /><path
       d="m 84.315267,124.26787 -5.994466,-1.75752 -0.08992,0.0362 z"
       style="fill:#ad1a1a;stroke:#661814;stroke-width:0"
       id="path1605" /><path
       d="m 86.176135,124.81357 0.001,-0.0186 -1.861902,-0.5271 z"
       style="fill:#ad1a1a;stroke:#661814;stroke-width:0"
       id="path1604" /><path
       d="m 138.31042,126.65583 -0.14108,-0.007 0.01,0.0729 z"
       style="fill:#ad1a1a;stroke:#661814;stroke-width:0"
       id="path1643" /><path
       d="m 138.38587,126.63775 0.0853,0.0253 h 5.2e-4 0.004 l -0.0879,-0.0253 z"
       style="fill:#ad1a1a;stroke:#661814;stroke-width:0"
       id="path1641" /><path
       d="m 94.701196,126.37316 -4.875154,5.23638 4.875671,-5.23638 z"
       style="fill:#ad1a1a;stroke:#661814;stroke-width:0"
       id="path1668" /><path
       d="m 173.38063,130.47111 -5.2e-4,-5.2e-4 -0.008,0.009 -0.0315,0.0336 -5.2e-4,0.001 0.0481,0.005 h 5.2e-4 5.2e-4 l 5.1e-4,-5.2e-4 5.2e-4,-5.2e-4 5.2e-4,-5.2e-4 v -5.1e-4 h -5.2e-4 l -5.2e-4,5.1e-4 -5.1e-4,5.2e-4 h -5.2e-4 -5.2e-4 l -0.0465,-0.005 0.031,-0.0336 0.008,-0.008 z"
       style="fill:#ad1a1a;stroke:#661814;stroke-width:0"
       id="path1654" /><path
       d="m 138.16883,126.64808 v 5.2e-4 h 5.1e-4 l 0.14108,0.007 h 5.2e-4 5.1e-4 v -5.1e-4 h 5.2e-4 5.2e-4 l 0.0398,-0.0207 h -0.001 l -0.0393,0.0202 h -5.2e-4 -5.1e-4 v 5.2e-4 h -5.2e-4 z"
       style="fill:#ad1a1a;stroke:#661814;stroke-width:0"
       id="path1637" /><path
       d="m 133.50761,118.33645 c 0.001,3.6e-4 0.002,6.6e-4 0.003,0.001 l 0.22841,-0.0145 -0.002,-0.001 z"
       style="fill:#ad1a1a;stroke:#661814;stroke-width:0"
       id="path1630" /><path
       d="m 133.196,118.25531 h 5.2e-4 l 5.2e-4,-5.1e-4 5.1e-4,-5.2e-4 c 0.0196,-0.0117 0.14115,0.0217 0.30748,0.0822 h 0.002 c -0.1674,-0.061 -0.28981,-0.095 -0.30955,-0.0832 l -5.1e-4,5.1e-4 -5.2e-4,5.2e-4 h -5.2e-4 v 5.2e-4 z"
       style="fill:#ad1a1a;stroke:#661814;stroke-width:0"
       id="path1628" /><path
       d="m 132.38882,120.73578 c 0.0696,-0.54114 0.48285,-1.83821 0.75137,-2.37608 1.6e-4,-3.1e-4 3.7e-4,-7.2e-4 5.2e-4,-0.001 h -5.2e-4 c -0.26867,0.53817 -0.68214,1.83652 -0.75137,2.37711 z"
       style="fill:#ad1a1a;stroke:#661814;stroke-width:0"
       id="path1627" /><path
       d="m 120.28826,121.30216 0.003,0.001 c 3.55853,0.14023 6.90094,0.22302 9.39994,0.21032 1.79874,-0.009 2.36133,-0.0122 2.56212,-0.24908 -0.2012,0.23638 -0.76477,0.23894 -2.56212,0.24805 -2.49971,0.0127 -5.84288,-0.07 -9.40253,-0.21032 z"
       style="fill:#ad1a1a;stroke:#661814;stroke-width:0"
       id="path1625" /><path
       d="m 120.01541,121.2913 0.003,10e-4 c 0,0 5.2e-4,0 5.2e-4,0 0.0892,0.004 0.1787,0.007 0.26768,0.0109 h 5.2e-4 c 10e-4,5e-5 0.002,-5e-5 0.004,0 l -0.003,-0.001 c -2.5e-4,-1e-5 -7.7e-4,1e-5 -10e-4,0 h -5.2e-4 c -0.0902,-0.004 -0.18086,-0.007 -0.2713,-0.0109 z"
       style="fill:#ad1a1a;stroke:#661814;stroke-width:0"
       id="path1624" /><path
       d="m 111.80455,120.88306 v 0.001 c 2.66868,0.15795 5.49716,0.29946 8.20983,0.40825 h 10e-4 c 0.001,5e-5 0.002,-5e-5 0.003,0 l -0.003,-0.001 h -10e-4 c -2.71269,-0.10878 -5.54113,-0.25029 -8.20983,-0.40824 z"
       style="fill:#ad1a1a;stroke:#661814;stroke-width:0"
       id="path1623" /><path
       d="m 111.70791,120.87789 c 0.0319,0.002 0.0646,0.004 0.0966,0.006 v -10e-4 c -0.0321,-0.002 -0.0646,-0.004 -0.0966,-0.006 z"
       style="fill:#ad1a1a;stroke:#661814;stroke-width:0"
       id="path1622" /><path
       d="m 107.05806,115.55677 v -5.2e-4 c -0.005,0.002 -0.01,0.003 -0.015,0.005 h -5.2e-4 c -0.41491,0.13213 -1.12949,0.34962 -1.85363,0.56327 -0.99969,0.29496 -1.94845,0.58911 -2.1084,0.65371 -0.15995,0.0646 -0.48717,0.16019 -0.72709,0.21239 -2.00385,0.43625 -3.889749,1.49846 -4.039544,2.1115 0.151248,-0.61317 2.036574,-1.67493 4.039544,-2.11098 0.23992,-0.0522 0.56714,-0.14779 0.72709,-0.21239 0.15995,-0.0646 1.10871,-0.35875 2.1084,-0.65371 0.72416,-0.21366 1.43872,-0.43114 1.85363,-0.56327 h 5.2e-4 c 0.005,-0.002 0.01,-0.003 0.015,-0.005 z"
       style="fill:#ad1a1a;stroke:#661814;stroke-width:0"
       id="path1620" /><path
       d="m 115.02605,113.84886 -0.001,5.2e-4 c 2.31069,-0.35462 4.70794,-0.44461 6.95358,-0.29042 -2.24535,-0.15416 -4.64214,-0.0646 -6.95255,0.2899 z"
       style="fill:#ad1a1a;stroke:#661814;stroke-width:0"
       id="path1619" /><path
       d="m 106.9175,112.86701 -1.31103,0.76843 0.0207,-0.0114 z"
       style="fill:#ad1a1a;stroke:#661814;stroke-width:0"
       id="path1615" /><path
       d="m 99.807861,125.2616 10e-4,-0.001 0.06511,-0.0868 h -5.17e-4 l -0.06511,0.0863 -0.0016,0.001 -10e-4,0.001 -0.0088,0.005 c -6e-6,1e-5 5e-6,5.1e-4 0,5.2e-4 l 0.0083,-0.004 0.001,-5.1e-4 h 5.17e-4 v -5.2e-4 l 5.17e-4,-5.2e-4 v -5.2e-4 z"
       style="fill:#ad1a1a;stroke:#661814;stroke-width:0"
       id="path1596" /><path
       d="m 108.06989,120.67067 -7.08122,3.93464 7.08225,-3.93464 c 0,0 -5.1e-4,0 -5.1e-4,0 z"
       style="fill:#ad1a1a;stroke:#661814;stroke-width:0"
       id="path1594" /><path
       d="m 103.52443,120.28723 v -5.2e-4 c -2.34972,-0.21302 -3.9755,-0.42162 -4.369759,-0.59582 -0.15995,-0.0707 -0.407032,-0.16541 -0.548803,-0.21084 -0.108308,-0.0347 -0.185867,-0.0799 -0.235128,-0.13385 0.04925,0.0541 0.126615,0.0996 0.235128,0.13436 0.141771,0.0454 0.388853,0.14014 0.548803,0.21084 0.39424,0.17419 2.020219,0.38282 4.369759,0.59583 z"
       style="fill:#ad1a1a;stroke:#661814;stroke-width:0"
       id="path1589" /><path
       d="m 107.9469,120.63605 0.001,-5.2e-4 c -1.63592,-0.11415 -3.13807,-0.23228 -4.4235,-0.34882 v 5.2e-4 c 1.28521,0.11652 2.78687,0.23469 4.42247,0.34882 z"
       style="fill:#ad1a1a;stroke:#661814;stroke-width:0"
       id="path1588" /><path
       d="m 107.94793,120.63605 c -2.3e-4,-2e-5 -8e-4,1e-5 -0.001,0 l -0.0419,0.0238 v 5.2e-4 h 5.2e-4 5.2e-4 c 0.0965,0.005 0.15453,0.01 0.16381,0.0103 h 5.2e-4 c 0,0 5.1e-4,0 5.1e-4,0 0,0 0,-5.2e-4 0,-5.2e-4 l 5.2e-4,-5.1e-4 c 0,0 -0.0597,-0.003 -0.16536,-0.01 z"
       style="fill:#ad1a1a;stroke:#661814;stroke-width:0"
       id="path1586" /><path
       d="m 111.70739,120.87738 v -0.001 c -1.30231,-0.0774 -2.56607,-0.15864 -3.75842,-0.24184 l -5.2e-4,5.1e-4 c 3.2e-4,2e-5 7.4e-4,-2e-5 0.001,0 l -5.1e-4,5.2e-4 c 1.19235,0.0832 2.45611,0.16445 3.75842,0.24185 z"
       style="fill:#ad1a1a;stroke:#661814;stroke-width:0"
       id="path1585" /><path
       d="m 112.55127,125.40372 -0.84336,-4.52583 0.84284,4.52583 z"
       style="fill:#ad1a1a;stroke:#661814;stroke-width:0"
       id="path1584" /><path
       d="m 114.16926,134.77369 5.2e-4,-5.2e-4 -1.58854,-9.3555 -10e-4,-0.001 z"
       style="fill:#ad1a1a;stroke:#661814;stroke-width:0"
       id="path1580" /><path
       d="m 135.78861,138.99617 h 0.003 l -21.67981,-3.97805 -5.2e-4,5.1e-4 z"
       style="fill:#ad1a1a;stroke:#661814;stroke-width:0"
       id="path1563" /><path
       d="m 147.31711,136.83144 c -0.0162,-0.004 -0.0322,-0.008 -0.0491,-0.0114 l -7.20162,1.5043 -0.0181,0.004 7.21971,-1.50792 c 0.0169,0.003 0.0329,0.007 0.0491,0.0108 z"
       style="fill:#ad1a1a;stroke:#661814;stroke-width:0"
       id="path1555" /><path
       d="m 137.35751,138.991 v 5.2e-4 c 0.27025,-0.0103 0.54741,-0.0208 0.6227,-0.0217 l 9.33793,-2.13785 c 0,0 0,-5.2e-4 0,-5.2e-4 l -9.33793,2.13786 c -0.0752,9.9e-4 -0.35205,0.0114 -0.62219,0.0217 z"
       style="fill:#ad1a1a;stroke:#661814;stroke-width:0"
       id="path1554" /><path
       d="m 137.35337,138.96878 -0.11162,0.0258 c -0.0597,0.003 -0.11755,0.005 -0.17105,0.007 v 5.2e-4 c 0.0535,-0.002 0.11135,-0.005 0.17105,-0.007 0.0354,-0.001 0.0747,-0.001 0.11627,-0.002 v -5.1e-4 c -0.0387,0.001 -0.0751,0.002 -0.10852,0.002 -0.002,5e-5 -0.003,-4e-5 -0.005,0 -8.8e-4,1e-5 -0.002,0 -0.003,0 z"
       style="fill:#ad1a1a;stroke:#661814;stroke-width:0"
       id="path1552" /><path
       d="m 128.02578,114.73357 h -0.004 c 0.11641,0.0425 0.23097,0.0857 0.34365,0.13022 l 5.37176,3.45819 h 0.002 l -5.37331,-3.45922 -0.001,-5.2e-4 c -0.11098,-0.0438 -0.22388,-0.0868 -0.33848,-0.12867 z"
       style="fill:#ad1a1a;stroke:#661814;stroke-width:0"
       id="path1522" /><path
       d="m 128.17564,114.74028 -0.154,-0.008 c -1.70328,-0.62097 -3.79703,-1.01884 -6.04252,-1.17305 2.24543,0.15422 4.33928,0.55261 6.04252,1.17357 z"
       style="fill:#ad1a1a;stroke:#661814;stroke-width:0"
       id="path1520" /></g></svg>
